<?xml version="1.0" encoding="UTF-8" standalone="no"?>
<svg
   inkscape:version="1.2.1 (9c6d41e410, 2022-07-14)"
   sodipodi:docname="Logo.svg"
   viewBox="0 0 960 960"
   height="960"
   width="960"
   id="svg10"
   version="1.1"
   xmlns:inkscape="http://www.inkscape.org/namespaces/inkscape"
   xmlns:sodipodi="http://sodipodi.sourceforge.net/DTD/sodipodi-0.dtd"
   xmlns="http://www.w3.org/2000/svg"
   xmlns:svg="http://www.w3.org/2000/svg"
   xmlns:rdf="http://www.w3.org/1999/02/22-rdf-syntax-ns#"
   xmlns:cc="http://creativecommons.org/ns#"
   xmlns:dc="http://purl.org/dc/elements/1.1/">
  <metadata
     id="metadata16">
    <rdf:RDF>
      <cc:Work
         rdf:about="">
        <dc:format>image/svg+xml</dc:format>
        <dc:type
           rdf:resource="http://purl.org/dc/dcmitype/StillImage" />
        <dc:title />
      </cc:Work>
    </rdf:RDF>
  </metadata>
  <defs
     id="defs14" />
  <sodipodi:namedview
     inkscape:current-layer="g18"
     inkscape:window-maximized="1"
     inkscape:window-y="-8"
     inkscape:window-x="-8"
     inkscape:cy="676"
     inkscape:cx="527"
     inkscape:zoom="0.5"
     showgrid="false"
     id="namedview12"
     inkscape:window-height="1027"
     inkscape:window-width="1920"
     inkscape:pageshadow="2"
     inkscape:pageopacity="0"
     guidetolerance="10"
     gridtolerance="10"
     objecttolerance="10"
     borderopacity="1"
     bordercolor="#666666"
     pagecolor="#ffffff"
     inkscape:showpageshadow="2"
     inkscape:pagecheckerboard="0"
     inkscape:deskcolor="#d1d1d1" />
  <g
     id="g18"
     inkscape:label="Image"
     inkscape:groupmode="layer">
    <g
       id="g22">
      <path
         id="path94"
         d="M 0.04825151,728.56 C 0.07478983,601.268 0.21166635,499.568 0.35242154,502.56 7.5467686,655.48854 86.535978,794.86678 214.24,879.9695 c 72.29228,48.17597 155.91174,75.57172 243.2,79.67808 2.992,0.14074 -98.708,0.27764 -226,0.30416 L 0,960 Z M 502.56,959.64758 C 655.48854,952.45322 794.86678,873.46403 879.9695,745.76 c 48.07696,-72.14368 75.67754,-156.28701 79.66916,-242.88 0.14662,-3.18112 0.28694,97.8607 0.3134,225.68 L 960,960 728.56,959.95174 c -127.292,-0.0266 -228.992,-0.16342 -226,-0.30416 z M 0.04825151,231.44 0,0 231.44,0.06165749 C 358.732,0.09556911 461.944,0.1637914 460.8,0.2132626 408.19366,2.4881736 359.46765,12.301352 311.2,30.341966 230.90891,60.351722 158.84609,112.6904 104.92213,180.16 41.397168,259.64238 5.134016,355.79878 0.35242154,457.44 0.21166635,460.432 0.07478983,358.732 0.04825151,231.44 Z M 959.56666,456.79741 C 959.15914,445.51626 957.51878,427.55171 955.66605,414.08 934.83702,262.62472 842.88989,130.27311 707.68,57.120982 673.24874,38.492755 635.47328,23.832867 597.28,14.276971 565.13869,6.2352678 533.47946,1.695645 499.2,0.2132626 498.056,0.1637914 601.268,0.09556911 728.56,0.06165749 L 960,0 v 231.36 c 0,127.248 -0.0494,231.36 -0.1097,231.36 -0.0603,0 -0.20598,-2.66515 -0.32364,-5.92259 z"
         style="fill:#ffffff;stroke-width:0.32" />
      <path
         id="path92"
         d="M 464.96,952.93773 C 390.81402,950.66355 317.92631,930.83309 253.22257,895.33059 220.33685,877.28643 190.73543,856.19296 161.92508,830.27347 155.60233,824.58515 135.22617,804.20579 129.5767,797.92 88.36521,752.06672 57.463299,701.36806 36.539395,645.28 12.18509,579.99651 2.6988566,510.54714 8.4997686,440 13.844225,375.004 33.243562,310.49656 64.669395,253.22257 82.660752,220.43309 103.76375,190.80034 129.5767,162.08 c 5.64947,-6.2858 26.02563,-26.66516 32.34838,-32.35348 C 208.42264,87.894614 259.09415,57.141549 316.62202,35.83935 384.88925,10.560436 459.29248,1.608659 533.12,9.791537 c 79.05216,8.761965 155.00432,37.743711 220.32,84.069461 15.04979,10.674192 29.91235,22.617252 44.63491,35.867052 6.3649,5.72821 26.7456,26.10887 32.352,32.35195 41.79392,46.54022 72.53709,97.22657 93.72186,154.51967 25.31718,68.46887 34.23133,142.50151 26.07088,216.52033 -6.65303,60.34598 -25.59072,120.26086 -54.88906,173.65744 -17.99008,32.78717 -38.9872,62.27366 -64.90201,91.14256 -5.52874,6.15898 -26.26708,26.89405 -32.50858,32.50349 -46.44048,41.73747 -97.10614,72.46902 -154.53693,93.73526 -56.38067,20.87741 -117.0408,30.66167 -178.42307,28.77898 z m 43.84,-43.63632 c 43.7135,-3.20163 82.69344,-11.58848 122.08,-26.2665 C 753.1407,837.47258 849.28563,737.63226 890.03405,613.92 c 11.58313,-35.16634 18.04061,-68.27811 20.90621,-107.2 0.81705,-11.09786 0.81705,-46.18214 0,-57.28 C 907.6768,405.11446 899.39754,366.54493 884.63171,326.88 841.13546,210.03756 747.74848,116.65016 630.88,73.127126 596.00291,60.138538 560.62845,51.90048 523.68,48.162218 c -16.79622,-1.699357 -21.60547,-1.907892 -44,-1.907892 -22.39453,0 -27.20378,0.208535 -44,1.907892 -36.94845,3.738262 -72.32291,11.97632 -107.2,24.964908 C 211.60891,116.65113 118.25113,210.00891 74.727126,326.88 59.97825,366.48384 51.68161,405.13597 48.41976,449.44 c -0.817072,11.09786 -0.817072,46.18214 0,57.28 3.263434,44.32554 11.54271,82.89507 26.308538,122.56 C 120.21556,751.47085 220.12702,847.68538 343.84,888.43405 c 38.25853,12.60163 74.82355,19.2959 117.12,21.44214 1.232,0.0625 10.88,0.0774 21.44,0.0331 14.01024,-0.0588 21.14614,-0.2231 26.4,-0.6079 z M 496,765.72429 C 469.79168,763.91373 448.89907,741.9775 448.2351,715.5735 l -0.0751,-2.98646 -81.55158,-30.37651 -81.5516,-30.37651 -0.67361,0.88297 c -1.55232,2.03485 -5.99808,6.35712 -8.3305,8.09911 -12.23727,9.13948 -29.22055,10.63779 -42.85801,3.78102 -4.22501,-2.12429 -7.20409,-4.30576 -10.82508,-7.92675 -8.14922,-8.14922 -12.16798,-17.7768 -12.16798,-29.15037 0,-11.37357 4.01876,-21.00115 12.16798,-29.15037 8.12914,-8.12915 17.80641,-12.16899 29.15038,-12.16899 11.34397,0 21.02124,4.03984 29.15038,12.16899 8.15885,8.15885 12.16302,17.76311 12.16581,29.18045 6.4e-4,2.39254 -0.0898,4.712 -0.20079,5.15434 -0.18842,0.75068 -0.0566,0.85833 1.98137,1.61747 1.20078,0.44729 37.24281,13.87305 80.09344,29.83504 42.85062,15.96198 77.95062,28.90054 78.00003,28.75232 0.3009,-0.90269 3.71962,-6.73978 4.9544,-8.45911 8.95494,-12.46896 23.30371,-20.68908 37.77536,-21.64073 1.54,-0.10128 2.8,-0.31885 2.8,-0.48349 0,-0.40579 17.8775,-117.61174 18.11136,-118.73914 0.17078,-0.8232 0.12259,-0.87747 -0.61459,-0.69244 -2.01994,0.50697 -4.83168,-1.86826 -5.21008,-4.40122 -0.45034,-3.01459 3.61494,-5.83584 6.32176,-4.3872 0.35549,0.19027 0.70531,0.28698 0.77734,0.21494 0.0721,-0.0721 9.0593,-58.65571 19.97162,-130.18592 10.91232,-71.5302 19.90829,-130.34898 19.99097,-130.70836 0.12573,-0.54629 -0.19299,-0.80301 -1.94419,-1.56591 -2.05193,-0.89393 -2.10637,-0.90017 -2.67379,-0.30658 -0.31859,0.33325 -15.85856,19.30475 -34.53328,42.1589 l -33.95405,41.55299 0.824,1.32701 c 6.38333,10.27984 6.26023,23.30711 -0.31629,33.47338 -9.3055,14.38486 -28.62924,18.49776 -43.05715,9.16441 -6.21296,-4.01913 -11.11657,-10.70246 -13.09744,-17.85094 -0.81273,-2.93306 -1.06285,-4.8705 -1.11501,-8.63795 l -0.0412,-2.97443 -55.50122,-22.64653 c -30.52566,-12.45559 -55.58796,-22.53725 -55.69401,-22.40371 -0.10604,0.13353 -1.0505,1.39478 -2.09879,2.80278 -2.43117,3.26541 -6.98269,7.79104 -10.24553,10.18723 -9.25544,6.79715 -19.5075,10.17856 -30.86045,10.17856 -9.17073,0 -17.65028,-2.20438 -25.27894,-6.57158 -14.19289,-8.12506 -23.49541,-21.7486 -25.91278,-37.94925 -0.46004,-3.08308 -0.46004,-11.00684 0,-14.08992 2.41737,-16.20065 11.71989,-29.8242 25.91278,-37.94925 11.33255,-6.48759 25.41714,-8.30282 38.45185,-4.9557 17.52153,4.49927 32.27656,19.25046 36.77371,36.76418 1.59348,6.20563 2.0938,14.34598 1.24045,20.18221 -0.22166,1.51584 -0.26761,2.76926 -0.10736,2.92725 0.15418,0.15196 25.33059,10.49673 55.94765,22.9884 l 55.66736,22.71209 1.93264,-1.78988 c 7.5647,-7.00586 18.72346,-9.82724 28.66707,-7.2482 1.38227,0.3585 2.33232,0.4634 2.50051,0.27604 1.57456,-1.75383 69.16471,-84.68608 69.16368,-84.86298 0,-0.13156 -0.44099,-0.8872 -0.97833,-1.6792 -2.98602,-4.40117 -5.59194,-10.95229 -6.51559,-16.37989 -1.49235,-8.76914 -0.0861,-18.10921 3.92391,-26.0629 2.16646,-4.29702 4.42509,-7.41319 7.87024,-10.85835 8.10281,-8.1028 18.33273,-12.34248 29.78115,-12.34248 7.06931,0 12.69798,1.33353 18.96394,4.49288 4.2566,2.14622 7.38121,4.41361 10.81721,7.8496 8.08384,8.08386 12.3217,18.32661 12.3217,29.78114 0,6.98174 -1.37239,12.81565 -4.45146,18.92279 -2.16646,4.29702 -4.42509,7.41319 -7.87024,10.85835 -6.05382,6.05383 -13.57763,10.07414 -21.78115,11.63866 l -2.88,0.54926 -29.65216,194.21548 c -16.30867,106.8185 -29.73485,194.73341 -29.83594,195.3665 l -0.1838,1.15104 2.18131,0.85581 c 2.56061,1.00461 7.05101,3.51981 9.92265,5.55795 1.97575,1.40227 2.04775,1.42566 2.59773,0.8432 3.45056,-3.65424 148.89363,-155.80864 150.67155,-157.62416 l 2.41408,-2.46512 -1.42697,-1.53488 c -11.17351,-12.01843 -16.58311,-26.98755 -15.59786,-43.16147 1.05827,-17.37293 10.63607,-33.75885 25.54941,-43.71047 19.86221,-13.25398 46.05779,-13.25398 65.92,0 6.57715,4.3889 11.62806,9.45687 16.16259,16.21706 12.71098,18.94992 12.71098,43.77008 0,62.72 -4.53571,6.76198 -9.58989,11.83267 -16.16259,16.21542 -16.49626,10.99988 -37.49971,13.01348 -56.0312,5.37172 l -2.33907,-0.96455 -0.85133,0.88871 c -15.57773,16.26153 -155.18157,162.39478 -155.55123,162.82646 -0.50432,0.58893 -0.45283,0.78502 0.96157,3.66224 2.94563,5.99216 4.69257,12.49392 5.13721,19.12 2.11143,31.46298 -23.80093,57.26218 -55.32595,55.08429 z M 299.5006,611.63414 c -1.06172,-0.65932 -2.15559,-2.26905 -2.41155,-3.54886 -0.32768,-1.63843 0.87063,-3.73248 2.62071,-4.57968 1.73123,-0.83808 3.17053,-0.66794 4.61231,0.54525 1.46093,1.22928 2.01794,2.52029 1.8252,4.23027 -0.13325,1.18221 -0.40762,1.68227 -1.46324,2.66694 -1.13368,1.05751 -1.49453,1.21085 -2.83164,1.20343 -0.84281,-0.005 -1.90112,-0.23751 -2.35179,-0.51735 z m 17.69648,-5.87241 c -3.16564,-1.93011 -3.03455,-6.28291 0.24292,-8.06605 1.35677,-0.73818 3.1495,-0.56307 4.56666,0.44602 1.26659,0.90192 2.2744,3.1926 2.0144,4.57859 -0.569,3.03299 -4.19051,4.6471 -6.82398,3.04144 z m 17.97454,-5.72682 c -2.37453,-1.448 -3.14711,-3.69193 -2.05082,-5.95657 0.4976,-1.02791 1.03952,-1.57504 2.03946,-2.05911 1.69619,-0.82109 2.22694,-0.8231 3.85872,-0.0147 1.70316,0.84391 2.49072,1.98291 2.67142,3.86355 0.11379,1.18416 -0.008,1.78144 -0.5367,2.63728 -1.24045,2.00711 -4.02941,2.72016 -5.98208,1.52944 z m 17.85452,-5.68889 c -0.59459,-0.29303 -1.41388,-1.1337 -1.87996,-1.929 -1.38298,-2.35984 -0.61434,-4.9855 1.83657,-6.27379 3.65555,-1.92147 8.0585,2.49315 6.15402,6.1704 -1.18647,2.29082 -3.81344,3.16458 -6.11063,2.03239 z m -76.14906,-1.06429 c -2.86897,-1.74922 -3.06323,-5.22922 -0.41624,-7.45651 1.86868,-1.57239 4.19082,-1.41008 5.93946,0.4151 1.22736,1.28109 1.46491,3.82666 0.50044,5.36259 -0.85014,1.35389 -2.45273,2.31469 -3.86074,2.31469 -0.616,0 -1.58932,-0.28614 -2.16292,-0.63587 z m 93.76001,-4.8 c -2.36509,-1.44202 -3.10115,-4.78083 -1.47898,-6.70867 1.18807,-1.41194 2.54362,-2.03588 3.99898,-1.84068 2.41619,0.3241 4.21283,2.37863 4.17971,4.77968 -0.0467,3.38439 -3.83533,5.5161 -6.69971,3.76967 z M 250.24,583.30214 c -2.90562,-1.95843 -2.85618,-5.83532 0.0974,-7.63622 3.01568,-1.83878 6.61857,0.30861 6.62141,3.94646 9.6e-4,1.33421 -0.15671,1.7017 -1.21973,2.84132 -1.04047,1.11542 -1.45435,1.33065 -2.8,1.45612 -1.28449,0.11975 -1.78801,0.006 -2.69907,-0.60768 z M 388.47674,582.64 c -1.47956,-1.00698 -2.25792,-2.16573 -2.43693,-3.62771 -0.42928,-3.50631 3.73088,-6.17747 6.59257,-4.23293 0.61181,0.41571 1.43981,1.24173 1.84,1.83558 2.51872,3.73754 -2.27648,8.55629 -5.99564,6.02506 z m -99.49399,-3.68051 C 287.33268,578.11811 286.56,576.86806 286.56,575.04 c 0,-2.55648 2.01168,-4.64 4.48,-4.64 3.39087,0 5.72167,4.19619 3.78391,6.81226 -1.60128,2.16179 -3.76115,2.80787 -5.84116,1.74723 z m 117.48707,-1.87383 C 404.7799,576.224 404,574.8536 404,572.74579 c 0,-1.49353 0.14141,-1.96557 0.8,-2.6704 2.25709,-2.41561 5.22653,-2.31414 7.14842,0.24426 1.1072,1.47392 1.30659,2.76995 0.67068,4.35926 -0.97203,2.42935 -3.87596,3.56589 -6.14928,2.40675 z m 17.98304,-5.6838 c -1.2286,-0.55575 -2.26412,-1.84464 -2.72924,-3.39709 -0.30148,-1.00624 -0.25696,-1.41274 0.2902,-2.6497 0.74519,-1.68461 1.76279,-2.4631 3.52944,-2.70003 3.6409,-0.48835 6.4482,3.73578 4.55082,6.84758 -1.19706,1.9632 -3.66381,2.7937 -5.64122,1.89924 z m 18.1073,-5.68138 c -2.73043,-1.08877 -3.97238,-4.28998 -2.56189,-6.60339 1.5697,-2.57453 4.79981,-3.05498 6.89379,-1.02538 0.60272,0.58416 1.25802,1.55341 1.4562,2.15386 1.12912,3.42128 -2.44944,6.80624 -5.7881,5.47491 z m -190.64308,-0.90003 c -3.36509,-2.11216 -2.95718,-6.792 0.71421,-8.19415 1.36958,-0.52304 1.52715,-0.52329 2.88467,-0.005 4.54977,1.73757 3.63806,8.22557 -1.22519,8.71869 -0.96257,0.0976 -1.61933,-0.0462 -2.37369,-0.51968 z m 48.87793,-0.28234 c -0.72888,-0.38041 -1.37967,-1.10809 -1.87926,-2.10137 -0.67997,-1.35191 -0.72314,-1.65671 -0.39147,-2.76368 0.51997,-1.73552 1.78062,-3.11492 3.24877,-3.55479 1.64341,-0.49235 3.82467,0.29111 4.86291,1.74666 0.96303,1.35011 0.98862,3.65107 0.0546,4.91161 -1.63926,2.21236 -3.79661,2.85696 -5.89557,1.76157 z m 158.99629,-4.86384 c -4.22788,-2.23366 -2.83863,-8.63769 1.8728,-8.63309 3.65721,0.004 5.99865,4.65885 3.71084,7.37776 -0.92854,1.10352 -2.503,1.9098 -3.68467,1.88692 -0.40163,-0.008 -1.25619,-0.292 -1.89897,-0.63159 z m 18.09001,-5.57398 c -2.3336,-1.01565 -3.55785,-4.13043 -2.45808,-6.25392 1.78592,-3.44826 6.57533,-3.34451 8.2472,0.17865 1.09299,2.30336 0.1537,4.85728 -2.17539,5.91476 -1.57626,0.71568 -2.26758,0.7464 -3.61373,0.16051 z m -164.77718,-3.8304 c -1.67402,-0.72915 -2.70413,-2.25562 -2.70413,-4.00711 0,-5.81744 8.09656,-6.44851 8.86876,-0.69126 0.32177,2.39898 -2.07678,5.1753 -4.43712,5.13597 -0.4134,-0.007 -1.19078,-0.20381 -1.72751,-0.4376 z m 182.89603,-1.82941 c -2.75203,-1.09738 -4.02739,-4.51984 -2.57312,-6.90496 0.8919,-1.46272 2.33258,-2.12003 4.24406,-1.93638 3.849,0.36985 5.62224,5.07296 2.89399,7.67574 -1.47757,1.40966 -2.98663,1.79498 -4.56493,1.1656 z M 253.92,546.42829 c -3.17307,-1.41031 -3.83184,-5.26483 -1.28238,-7.50327 1.55403,-1.36448 3.0778,-1.59081 4.86476,-0.72265 3.50333,1.70208 3.23791,6.7056 -0.43716,8.24115 -1.28462,0.53674 -1.91009,0.5337 -3.14522,-0.0154 z m 70.88637,-10.65152 c -1.73219,-0.89715 -2.6529,-2.5001 -2.48317,-4.32327 0.436,-4.68342 6.27216,-5.96211 8.4032,-1.84115 1.91104,3.69555 -2.2736,8.05293 -5.92003,6.16442 z M 549.592,531.17274 c -1.30198,-0.36816 -3.02746,-2.20605 -3.31754,-3.53364 -0.52284,-2.39292 0.79517,-4.65113 3.12144,-5.34809 3.81773,-1.14381 7.27264,3.45657 5.17706,6.89347 -0.9871,1.61891 -3.18477,2.49616 -4.98096,1.98826 z M 254.52819,527.3537 c -1.96994,-1.26228 -2.56572,-4.26781 -1.24543,-6.28282 2.22972,-3.40298 7.61437,-2.1457 8.06857,1.88397 0.32021,2.84089 -1.62169,5.05056 -4.4291,5.03977 -0.84471,-0.003 -1.79657,-0.25808 -2.39404,-0.64092 z M 566.07984,524.72 c -3.58061,-2.44406 -2.58611,-7.35971 1.69296,-8.36819 1.22496,-0.28871 3.46003,0.74611 4.36915,2.02285 1.50093,2.10787 1.13949,4.46483 -0.95501,6.22723 -1.32032,1.11097 -3.57612,1.16313 -5.1071,0.11811 z M 336.6503,521.34627 c -2.47401,-1.36262 -3.20819,-3.88153 -1.82115,-6.24835 1.37962,-2.35414 3.70595,-3.05242 5.9561,-1.78774 1.52553,0.85737 2.25507,2.10668 2.25357,3.8592 -0.003,3.44265 -3.53216,5.75008 -6.38852,4.17689 z m 247.42679,-2.30454 c -4.83971,-2.95082 -1.30349,-10.34659 3.8559,-8.06435 2.45287,1.08502 3.52733,3.66009 2.49808,5.98688 -1.11587,2.52262 -4.0503,3.48204 -6.35398,2.07747 z m 17.02838,-6.49207 c -1.78102,-1.78102 -2.08269,-3.17097 -1.11987,-5.1599 1.31386,-2.71405 4.49994,-3.46083 6.73648,-1.57891 3.54899,2.98627 1.82941,8.10915 -2.72195,8.10915 -1.36848,0 -1.66445,-0.14013 -2.89466,-1.37034 z m -345.03741,-3.79404 c -3.77513,-2.41735 -1.96449,-8.26717 2.5608,-8.27351 3.54195,-0.005 5.53692,4.10867 3.42853,7.06963 -1.36645,1.91901 -4.03489,2.45536 -5.98933,1.20388 z m 363.5784,-1.20384 c -3.18086,-1.93968 -3.07033,-6.43485 0.19991,-8.12855 4.01622,-2.08003 8.51661,3.39152 5.71696,6.95069 -1.41123,1.79411 -4.04608,2.31862 -5.91687,1.17786 z M 348.49149,506.8 c -2.57687,-1.32134 -3.22995,-4.04307 -1.5593,-6.49814 2.08768,-3.06788 6.47021,-2.51648 7.80637,0.98217 0.51318,1.34378 0.51427,1.52535 0.017,2.82775 -0.59814,1.56617 -1.52659,2.5631 -2.85626,3.06691 -1.29372,0.49017 -1.82931,0.43065 -3.40768,-0.37869 z m 289.07286,-5.00954 c -3.31574,-2.02185 -3.28854,-6.42124 0.0497,-8.03724 1.65981,-0.80352 2.48985,-0.79754 3.94237,0.0285 1.61366,0.9176 2.36163,2.05302 2.53398,3.84652 0.11379,1.18416 -0.008,1.78144 -0.5367,2.63728 -1.2425,2.01044 -4.02957,2.72007 -5.98935,1.525 z m 17.86179,-5.68444 c -1.20649,-0.5946 -2.62614,-2.79178 -2.62614,-4.06442 0,-2.50445 2.02381,-4.5216 4.53654,-4.5216 3.34074,0 5.69332,3.67072 4.20023,6.55363 -1.18647,2.29082 -3.81344,3.16458 -6.11063,2.03239 z M 360.8,492.66829 c -3.18128,-1.41395 -3.83194,-5.26474 -1.26966,-7.51443 1.31952,-1.15856 2.30329,-1.46132 3.82233,-1.17636 2.32039,0.43533 3.97923,2.84618 3.54631,5.15392 -0.25799,1.37508 -1.5968,2.98512 -2.95376,3.5521 -1.28461,0.53674 -1.91008,0.5337 -3.14522,-0.0154 z m -102.81018,-2.32048 c -4.20173,-2.07095 -2.67934,-8.53447 2.01018,-8.53447 2.5056,0 4.37333,1.8905 4.37333,4.42666 0,1.72947 -0.61281,2.77846 -2.29008,3.92 -1.2416,0.84502 -2.6307,0.90877 -4.09343,0.18781 z M 372.64,478.28352 c -1.68784,-0.77699 -2.49382,-1.94128 -2.6313,-3.80106 -0.1463,-1.9798 0.5682,-3.39196 2.22839,-4.40419 3.79353,-2.31296 8.41033,2.43018 5.92291,6.08499 -1.46307,2.1497 -3.63981,2.9858 -5.52,2.12026 z M 260.32,472.0855 c -2.06182,-0.51622 -3.51764,-2.62534 -3.27824,-4.74931 0.50364,-4.46832 5.93595,-5.75776 8.25232,-1.95881 1.32737,2.17696 0.44585,4.99638 -1.94556,6.22262 -1.40276,0.7193 -1.82467,0.78694 -3.02852,0.4855 z m 124.08662,-8.39392 c -3.3599,-1.52521 -3.54406,-6.01382 -0.32953,-8.03232 1.28006,-0.8038 3.5719,-0.70444 4.82365,0.20909 2.79308,2.03843 2.14598,6.65123 -1.1162,7.95651 -1.55561,0.62244 -1.72816,0.61562 -3.37792,-0.13328 z M 260.57554,452.81296 c -1.99944,-1.21914 -2.75127,-4.3079 -1.46975,-6.03821 2.29186,-3.09446 6.07673,-2.96643 7.84041,0.26525 2.07087,3.79456 -2.6296,8.05402 -6.37066,5.77296 z m 136.14142,-3.35034 c -1.54342,-0.55075 -1.98272,-0.92908 -2.60749,-2.24569 -0.66947,-1.41085 -0.64381,-2.65411 0.083,-4.02192 2.26259,-4.25783 8.36221,-2.88189 8.36631,1.88723 0,1.86877 -1.01568,3.46893 -2.68826,4.22851 -1.54848,0.70323 -1.60131,0.70579 -3.1536,0.15187 z m 12.24813,-14.29382 c -1.40999,-0.30176 -3.09651,-2.10464 -3.37939,-3.61248 -0.15735,-0.83872 -0.031,-1.51104 0.48336,-2.57373 2.5934,-5.35728 10.46822,-1.98317 8.06284,3.45463 -0.94688,2.14057 -2.95868,3.20419 -5.16681,2.73158 z M 262.08,434.18214 c -3.79778,-2.55977 -2.14156,-8.25974 2.4,-8.25974 2.70642,0 4.50924,2.07562 4.23965,4.88122 -0.31719,3.30105 -3.98535,5.16755 -6.63965,3.37852 z m 158.77418,-13.40329 c -2.29632,-0.49248 -3.87306,-3.12051 -3.25325,-5.42234 0.35984,-1.33629 1.98733,-3.12112 3.10083,-3.40061 2.32422,-0.58332 4.82557,0.76468 5.56253,2.99773 1.07507,3.25747 -1.99075,6.55853 -5.41011,5.82522 z m 272.34291,-2.85712 c -2.62019,-1.59754 -3.06432,-4.84384 -0.95175,-6.95639 2.19428,-2.1943 5.62237,-1.60896 7.03415,1.20103 0.30774,0.61251 0.5592,1.54563 0.55881,2.07363 0,2.10496 -2.29651,4.3176 -4.4783,4.3176 -0.616,0 -1.58931,-0.28614 -2.16291,-0.63587 z m -429.44001,-2.24 c -3.98459,-2.42944 -2.41512,-8.40899 2.20713,-8.40899 2.54942,0 4.59717,2.25555 4.33782,4.77804 -0.34103,3.31687 -3.85905,5.26855 -6.54495,3.63095 z m 167.69844,-9.90877 c -1.47523,-0.89952 -2.12029,-2.32989 -1.93245,-4.28502 0.13197,-1.37335 0.344,-1.78298 1.46323,-2.82701 1.12637,-1.05066 1.51575,-1.22093 2.79194,-1.22093 2.51357,0 4.26509,1.53706 4.54099,3.98496 0.18045,1.60096 -0.41261,2.9255 -1.85229,4.13693 -1.25267,1.05405 -3.47536,1.14765 -5.01142,0.21107 z M 683.52,402.6712 c -0.7649,-0.30701 -1.94218,-1.47699 -2.4304,-2.4153 -1.0048,-1.9312 -0.17933,-4.44969 1.86749,-5.69763 3.56585,-2.17414 8.11264,2.00874 6.19331,5.69763 -0.83114,1.59741 -1.97517,2.38813 -3.61997,2.50199 -0.84173,0.0583 -1.74643,0.0192 -2.01043,-0.0867 z m -417.6,-5.25494 c -3.31008,-1.37767 -4.05643,-5.31607 -1.44238,-7.61124 1.53002,-1.34339 2.98145,-1.56652 4.71885,-0.72547 1.68816,0.81725 2.5902,2.24938 2.5902,4.11235 0,2.90932 -3.30628,5.29002 -5.86667,4.22436 z m 407.36,-10.44224 c -0.74627,-0.2728 -1.93478,-1.44554 -2.4304,-2.39812 -1.0048,-1.9312 -0.17933,-4.44969 1.86749,-5.69763 2.03494,-1.24073 4.67453,-0.50272 6.00464,1.67882 1.7431,2.85888 -0.40739,6.68499 -3.71949,6.61766 -0.68323,-0.0138 -1.45824,-0.10422 -1.72224,-0.20073 z m -405.65912,-8.15344 c -1.3935,-0.36653 -2.91206,-1.96836 -3.17012,-3.34391 -0.46312,-2.46867 1.18074,-4.97344 3.55656,-5.41917 1.55998,-0.29264 2.56213,0.0359 3.92831,1.28794 1.10614,1.0137 1.18437,1.20854 1.18437,2.94998 0,1.36813 -0.1704,2.09072 -0.64,2.71396 -1.20011,1.59273 -3.05758,2.28508 -4.85912,1.8112 z M 661.7431,370.2984 c -0.67187,-0.67187 -1.31878,-1.60883 -1.43756,-2.08211 -0.53712,-2.13997 0.84115,-4.65863 2.92579,-5.34663 3.92422,-1.2951 7.39117,3.10372 5.21779,6.62032 -0.86016,1.39175 -2.11494,2.03002 -3.99088,2.03002 -1.3039,0 -1.64864,-0.1551 -2.71514,-1.2216 z M 267.93554,359.69296 c -1.98533,-1.21053 -2.64694,-4.19581 -1.3831,-6.24074 1.974,-3.19398 6.84665,-2.56979 8.03443,1.02922 1.26172,3.82304 -3.19784,7.31725 -6.65133,5.21152 z M 651.71069,354.864 c -2.14589,-1.8841 -2.28653,-4.58682 -0.34003,-6.53334 3.60208,-3.60205 9.36518,0.75235 7.01382,5.29939 -0.70592,1.36505 -2.25158,2.20733 -4.05334,2.20877 -1.22669,0 -1.71677,-0.18135 -2.62045,-0.97482 z m -8.71818,-14.7415 c -1.292,-0.36413 -2.90237,-2.19664 -3.16621,-3.60288 -0.144,-0.76768 -0.009,-1.53722 0.45175,-2.57933 0.53757,-1.2152 0.92704,-1.60467 2.14224,-2.14224 3.10931,-1.37539 6.22189,0.67981 6.21853,4.10605 -0.003,2.83728 -2.89088,4.99497 -5.64631,4.2184 z m -10.24,-15.6721 c -1.30349,-0.3776 -2.90365,-2.2113 -3.17037,-3.63302 -0.50704,-2.70277 2.45668,-5.66149 5.16253,-5.15386 2.34205,0.43937 4.1624,3.20823 3.63795,5.53357 -0.32358,1.43472 -1.71785,2.88128 -3.16444,3.28317 -1.28583,0.35718 -1.12285,0.35916 -2.46567,-0.0298 z M 622.24,308.66828 c -3.9849,-1.77111 -3.66781,-7.31871 0.48643,-8.51013 4.24627,-1.21781 7.43891,4.38365 4.23866,7.43673 -1.55159,1.48025 -3.04592,1.81971 -4.72509,1.0734 z m -10.24,-15.68 c -3.04528,-1.3535 -3.81514,-5.11277 -1.50102,-7.32982 1.92179,-1.8412 4.65782,-1.74331 6.38915,0.22858 2.0224,2.30338 1.39158,5.57701 -1.32839,6.89372 -1.57232,0.76114 -2.22809,0.79937 -3.55974,0.20752 z m -10.24,-15.68 c -1.67648,-0.74512 -2.49344,-1.92053 -2.6313,-3.78582 -0.23113,-3.12748 1.6848,-4.89842 5.14893,-4.75931 1.25763,0.0505 3.28109,2.10496 3.56528,3.6199 0.3472,1.8507 -0.75165,3.95991 -2.46912,4.73939 -1.61021,0.7308 -2.30701,0.76663 -3.61379,0.18584 z"
         style="fill:#fefefe;stroke-width:0.32" />
      <path
         id="path90"
         d="m 144.27918,823.44 c -0.39804,-0.50755 -0.38672,-0.51885 0.12082,-0.12083 0.308,0.24157 0.56,0.49357 0.56,0.56 0,0.26339 -0.26278,0.0938 -0.68082,-0.43917 z M 815.04,823.87917 c 0,-0.0664 0.252,-0.31843 0.56,-0.56 0.50755,-0.39802 0.51885,-0.38672 0.12083,0.12083 -0.41805,0.53302 -0.68083,0.70256 -0.68083,0.43917 z M 136.27918,815.44 c -0.39804,-0.50755 -0.38672,-0.51885 0.12082,-0.12083 0.308,0.24157 0.56,0.49357 0.56,0.56 0,0.26339 -0.26278,0.0938 -0.68082,-0.43917 z m 8.66989,-1.28 -1.74907,-1.84 1.84,1.74906 c 1.012,0.96201 1.84,1.79001 1.84,1.84 0,0.23753 -0.30599,-0.0396 -1.93093,-1.74906 z M 814.88,814.08 c 0.86675,-0.88 1.64794,-1.6 1.73594,-1.6 0.088,0 -0.54919,0.72 -1.41594,1.6 -0.86675,0.88 -1.64794,1.6 -1.73594,1.6 -0.088,0 0.54919,-0.72 1.41594,-1.6 z M 173.90998,783.6 172,781.6 l 2,1.90998 c 1.85783,1.77421 2.14643,2.09002 1.90998,2.09002 -0.0495,0 -0.94951,-0.9 -2,-2 z M 785.12,783.68 c 1.04499,-1.056 1.97197,-1.92 2.05997,-1.92 0.088,0 -0.69498,0.864 -1.73997,1.92 -1.04499,1.056 -1.97197,1.92 -2.05997,1.92 -0.088,0 0.69498,-0.864 1.73997,-1.92 z M 222.03918,656.72 c -0.39804,-0.50755 -0.38672,-0.51885 0.12082,-0.12083 0.308,0.24157 0.56,0.49357 0.56,0.56 0,0.26339 -0.26278,0.0938 -0.68082,-0.43917 z m 58.28082,0.43917 c 0,-0.0664 0.252,-0.31843 0.56,-0.56 0.50754,-0.39802 0.51886,-0.38672 0.12082,0.12083 -0.41804,0.53302 -0.68082,0.70256 -0.68082,0.43917 z m -58.56,-58.56 c 0,-0.0664 0.252,-0.31843 0.56,-0.56 0.50754,-0.39802 0.51886,-0.38672 0.12082,0.12083 -0.41804,0.53302 -0.68082,0.70256 -0.68082,0.43917 z M 280.59918,598.16 c -0.39804,-0.50755 -0.38672,-0.51885 0.12082,-0.12083 0.308,0.24157 0.56,0.49357 0.56,0.56 0,0.26339 -0.26278,0.0939 -0.68082,-0.43917 z M 173.92,172.48 c 0.86677,-0.88 1.64794,-1.6 1.73594,-1.6 0.088,0 -0.54917,0.72 -1.41594,1.6 -0.86677,0.88 -1.64794,1.6 -1.73594,1.6 -0.088,0 0.54917,-0.72 1.41594,-1.6 z m 611.18797,-0.08 -1.58797,-1.68 1.68,1.58797 c 0.924,0.87338 1.68,1.62938 1.68,1.68 0,0.23878 -0.29645,-0.0269 -1.77203,-1.58797 z M 145.28,145.44 c 0.59705,-0.616 1.15755,-1.12 1.24555,-1.12 0.088,0 -0.3285,0.504 -0.92555,1.12 -0.59705,0.616 -1.15755,1.12 -1.24555,1.12 -0.088,0 0.3285,-0.504 0.92555,-1.12 z m 669.10278,-0.08 -1.10278,-1.2 1.2,1.10277 c 1.11693,1.02644 1.34714,1.29723 1.10278,1.29723 -0.0535,0 -0.59347,-0.54 -1.2,-1.2 z M 136,144.83918 c 0,-0.0665 0.252,-0.31845 0.56,-0.56 0.50754,-0.39804 0.51886,-0.38672 0.12082,0.12082 C 136.26278,144.93304 136,145.10255 136,144.83918 Z M 823.31917,144.4 c -0.39802,-0.50754 -0.38672,-0.51886 0.12083,-0.12082 0.308,0.24155 0.56,0.49355 0.56,0.56 0,0.26337 -0.26278,0.0939 -0.68083,-0.43918 z M 144,136.83918 c 0,-0.0665 0.252,-0.31845 0.56,-0.56 0.50754,-0.39804 0.51886,-0.38672 0.12082,0.12082 C 144.26278,136.93304 144,137.10255 144,136.83918 Z M 815.31917,136.4 c -0.39802,-0.50754 -0.38672,-0.51886 0.12083,-0.12082 0.53302,0.41804 0.70256,0.68082 0.43917,0.68082 -0.0664,0 -0.31843,-0.252 -0.56,-0.56 z"
         style="fill:#fbfcfd;stroke-width:0.32" />
      <path
         id="path88"
         d="m 143.1696,822.32 -0.6096,-0.72 0.72,0.6096 c 0.67662,0.57286 0.86568,0.8304 0.6096,0.8304 -0.0607,0 -0.38473,-0.324 -0.72,-0.72 z M 816.48,822.4 c 0.31856,-0.352 0.6512,-0.64 0.7392,-0.64 0.088,0 -0.10064,0.288 -0.4192,0.64 -0.31856,0.352 -0.6512,0.64 -0.7392,0.64 -0.088,0 0.10064,-0.288 0.4192,-0.64 z m -679.0704,-5.84 -0.6096,-0.72 0.72,0.6096 c 0.396,0.33526 0.72,0.65926 0.72,0.72 0,0.25606 -0.25753,0.067 -0.8304,-0.6096 z m 9.92,0 -0.6096,-0.72 0.72,0.6096 c 0.67662,0.57286 0.86568,0.8304 0.6096,0.8304 -0.0607,0 -0.38473,-0.324 -0.72,-0.72 z M 812.48,816.48 c 0.41334,-0.44 0.82355,-0.8 0.91155,-0.8 0.088,0 -0.17821,0.36 -0.59155,0.8 -0.41334,0.44 -0.82355,0.8 -0.91155,0.8 -0.088,0 0.17821,-0.36 0.59155,-0.8 z m 9.92,0 c 0.41334,-0.44 0.82355,-0.8 0.91155,-0.8 0.088,0 -0.17821,0.36 -0.59155,0.8 -0.41334,0.44 -0.82355,0.8 -0.91155,0.8 -0.088,0 0.17821,-0.36 0.59155,-0.8 z m -679.72082,-4.56 c -0.39804,-0.50755 -0.38672,-0.51885 0.12082,-0.12083 0.308,0.24157 0.56,0.49357 0.56,0.56 0,0.26339 -0.26278,0.0939 -0.68082,-0.43917 z M 816.64,812.35917 c 0,-0.0664 0.252,-0.31843 0.56,-0.56 0.50755,-0.39802 0.51885,-0.38672 0.12083,0.12083 -0.41805,0.53302 -0.68083,0.70256 -0.68083,0.43917 z M 143.36,147.36 c 0.41336,-0.44 0.82356,-0.8 0.91156,-0.8 0.088,0 -0.1782,0.36 -0.59156,0.8 -0.41336,0.44 -0.82356,0.8 -0.91156,0.8 -0.088,0 0.1782,-0.36 0.59156,-0.8 z m 672.93578,-0.08 -0.77578,-0.88 0.88,0.77578 c 0.484,0.42668 0.88,0.82268 0.88,0.88 0,0.25097 -0.25914,0.0467 -0.98422,-0.77578 z M 147.04,143.68 c 0.31856,-0.352 0.65119,-0.64 0.73919,-0.64 0.088,0 -0.10063,0.288 -0.41919,0.64 -0.31856,0.352 -0.65119,0.64 -0.73919,0.64 -0.088,0 0.10063,-0.288 0.41919,-0.64 z M 812.6096,143.6 812,142.88 l 0.72,0.6096 c 0.67661,0.57287 0.86566,0.8304 0.6096,0.8304 -0.0607,0 -0.38474,-0.324 -0.72,-0.72 z M 137.44,143.36 c 0.31856,-0.352 0.65119,-0.64 0.73919,-0.64 0.088,0 -0.10063,0.288 -0.41919,0.64 -0.31856,0.352 -0.65119,0.64 -0.73919,0.64 -0.088,0 0.10063,-0.288 0.41919,-0.64 z m 684.7696,-0.08 -0.6096,-0.72 0.72,0.6096 c 0.67661,0.57287 0.86566,0.8304 0.6096,0.8304 -0.0607,0 -0.38474,-0.324 -0.72,-0.72 z M 143.2,137.6 c 0.31856,-0.352 0.65119,-0.64 0.73919,-0.64 0.088,0 -0.10063,0.288 -0.41919,0.64 -0.31856,0.352 -0.65119,0.64 -0.73919,0.64 -0.088,0 0.10063,-0.288 0.41919,-0.64 z m 673.2496,-0.08 -0.6096,-0.72 0.72,0.6096 c 0.67661,0.57287 0.86566,0.8304 0.6096,0.8304 -0.0607,0 -0.38474,-0.324 -0.72,-0.72 z"
         style="fill:#f9fafc;stroke-width:0.32" />
      <path
         id="path86"
         d="M 141.5696,820.72 140.96,820 l 0.72,0.6096 c 0.67662,0.57286 0.86568,0.8304 0.6096,0.8304 -0.0607,0 -0.38473,-0.324 -0.72,-0.72 z M 818.08,820.8 c 0.31856,-0.352 0.6512,-0.64 0.7392,-0.64 0.088,0 -0.10064,0.288 -0.4192,0.64 -0.31856,0.352 -0.6512,0.64 -0.7392,0.64 -0.088,0 0.10064,-0.288 0.4192,-0.64 z m -679.0704,-2.64 -0.6096,-0.72 0.72,0.6096 c 0.67662,0.57286 0.86568,0.8304 0.6096,0.8304 -0.0607,0 -0.38473,-0.324 -0.72,-0.72 z m 681.6304,0.08 c 0.31856,-0.352 0.6512,-0.64 0.7392,-0.64 0.088,0 -0.10064,0.288 -0.4192,0.64 -0.31856,0.352 -0.6512,0.64 -0.7392,0.64 -0.088,0 0.10064,-0.288 0.4192,-0.64 z M 139.04,141.76 c 0.31856,-0.352 0.65119,-0.64 0.73919,-0.64 0.088,0 -0.10063,0.288 -0.41919,0.64 -0.31856,0.352 -0.65119,0.64 -0.73919,0.64 -0.088,0 0.10063,-0.288 0.41919,-0.64 z m 681.5696,-0.08 -0.6096,-0.72 0.72,0.6096 c 0.67661,0.57287 0.86566,0.8304 0.6096,0.8304 -0.0607,0 -0.38474,-0.324 -0.72,-0.72 z M 141.12,139.71918 c 0,-0.0665 0.252,-0.31845 0.56,-0.56 0.50754,-0.39804 0.51886,-0.38672 0.12082,0.12082 -0.41804,0.53304 -0.68082,0.70255 -0.68082,0.43918 z M 818.19917,139.28 c -0.39802,-0.50754 -0.38672,-0.51886 0.12083,-0.12082 0.53302,0.41804 0.70256,0.68082 0.43917,0.68082 -0.0664,0 -0.31843,-0.252 -0.56,-0.56 z"
         style="fill:#f6f8fa;stroke-width:0.32" />
      <path
         id="path84"
         d="m 149.07918,818.32 c -0.39804,-0.50755 -0.38672,-0.51885 0.12082,-0.12083 0.308,0.24157 0.56,0.49357 0.56,0.56 0,0.26339 -0.26278,0.0938 -0.68082,-0.43917 z M 810.24,818.75917 c 0,-0.0664 0.252,-0.31843 0.56,-0.56 0.50755,-0.39802 0.51885,-0.38672 0.12083,0.12083 -0.41805,0.53302 -0.68083,0.70256 -0.68083,0.43917 z M 141.39918,810.64 c -0.39804,-0.50755 -0.38672,-0.51885 0.12082,-0.12083 0.53304,0.41805 0.70255,0.68083 0.43918,0.68083 -0.0665,0 -0.31845,-0.252 -0.56,-0.56 z M 817.92,811.07917 c 0,-0.0664 0.252,-0.31843 0.56,-0.56 0.50755,-0.39802 0.51885,-0.38672 0.12083,0.12083 -0.41805,0.53302 -0.68083,0.70256 -0.68083,0.43917 z M 141.6,149.12 c 0.31856,-0.352 0.65119,-0.64 0.73919,-0.64 0.088,0 -0.10063,0.288 -0.41919,0.64 -0.31856,0.352 -0.65119,0.64 -0.73919,0.64 -0.088,0 0.10063,-0.288 0.41919,-0.64 z m 676.4496,-0.08 -0.6096,-0.72 0.72,0.6096 c 0.67661,0.57287 0.86566,0.8304 0.6096,0.8304 -0.0607,0 -0.38474,-0.324 -0.72,-0.72 z M 148.96,141.76 c 0.31856,-0.352 0.65119,-0.64 0.73919,-0.64 0.088,0 -0.10063,0.288 -0.41919,0.64 -0.31856,0.352 -0.65119,0.64 -0.73919,0.64 -0.088,0 0.10063,-0.288 0.41919,-0.64 z m 661.7296,-0.08 -0.6096,-0.72 0.72,0.6096 c 0.67661,0.57287 0.86566,0.8304 0.6096,0.8304 -0.0607,0 -0.38474,-0.324 -0.72,-0.72 z"
         style="fill:#f4f6fa;stroke-width:0.32" />
      <path
         id="path82"
         d="m 471.62,953.06141 c 0.23101,-0.0924 0.50701,-0.0811 0.61334,0.0253 0.10634,0.10633 -0.0827,0.18198 -0.42,0.16809 -0.3728,-0.0154 -0.4486,-0.0912 -0.19334,-0.19334 z m 16.32,0 c 0.23101,-0.0924 0.50701,-0.0811 0.61334,0.0253 0.10634,0.10633 -0.0827,0.18198 -0.42,0.16809 -0.3728,-0.0154 -0.4486,-0.0912 -0.19334,-0.19334 z"
         style="fill:#f0f3f7;stroke-width:0.32" />
      <path
         id="path80"
         d="m 725.38,529.70141 c 0.23101,-0.0924 0.50701,-0.0811 0.61334,0.0253 0.10634,0.10633 -0.0827,0.18198 -0.42,0.16809 -0.3728,-0.0154 -0.4486,-0.0912 -0.19334,-0.19334 z m 2.88,0 c 0.23101,-0.0924 0.50701,-0.0811 0.61334,0.0253 0.10634,0.10633 -0.0827,0.18198 -0.42,0.16809 -0.3728,-0.0154 -0.4486,-0.0912 -0.19334,-0.19334 z m -2.88,-115.2 c 0.23101,-0.0925 0.50701,-0.0811 0.61334,0.0253 0.10634,0.10633 -0.0827,0.18198 -0.42,0.16809 -0.3728,-0.0154 -0.4486,-0.0912 -0.19334,-0.19334 z"
         style="fill:#edf2f8;stroke-width:0.32" />
      <path
         id="path78"
         d="m 470.66,953.06141 c 0.23101,-0.0924 0.50701,-0.0811 0.61334,0.0253 0.10634,0.10633 -0.0827,0.18198 -0.42,0.16809 -0.3728,-0.0154 -0.4486,-0.0912 -0.19334,-0.19334 z m 18.24,0 c 0.23101,-0.0924 0.50701,-0.0811 0.61334,0.0253 0.10634,0.10633 -0.0827,0.18198 -0.42,0.16809 -0.3728,-0.0154 -0.4486,-0.0912 -0.19334,-0.19334 z M 470.66,6.8214035 c 0.23101,-0.092439 0.50701,-0.08107 0.61334,0.025264 0.10634,0.1063335 -0.0827,0.1819651 -0.42,0.1680704 -0.3728,-0.015354 -0.4486,-0.091181 -0.19334,-0.1933334 z m 18.24,0 c 0.23101,-0.092439 0.50701,-0.08107 0.61334,0.025264 0.10634,0.1063335 -0.0827,0.1819651 -0.42,0.1680704 -0.3728,-0.015354 -0.4486,-0.091181 -0.19334,-0.1933334 z"
         style="fill:#e0e5ef;stroke-width:0.32" />
      <path
         id="path76"
         d="m 602.19917,203.28 c -0.39802,-0.50754 -0.38672,-0.51886 0.12083,-0.12082 0.53302,0.41804 0.70256,0.68082 0.43917,0.68082 -0.0664,0 -0.31843,-0.252 -0.56,-0.56 z"
         style="fill:#cddced;stroke-width:0.32" />
      <path
         id="path74"
         d="m 469.38,953.06141 c 0.23101,-0.0924 0.50701,-0.0811 0.61334,0.0253 0.10634,0.10633 -0.0827,0.18198 -0.42,0.16809 -0.3728,-0.0154 -0.4486,-0.0912 -0.19334,-0.19334 z m 20.8,0 c 0.23101,-0.0924 0.50701,-0.0811 0.61334,0.0253 0.10634,0.10633 -0.0827,0.18198 -0.42,0.16809 -0.3728,-0.0154 -0.4486,-0.0912 -0.19334,-0.19334 z M 469.38,6.8214035 c 0.23101,-0.092439 0.50701,-0.08107 0.61334,0.025264 0.10634,0.1063335 -0.0827,0.1819651 -0.42,0.1680704 -0.3728,-0.015354 -0.4486,-0.091181 -0.19334,-0.1933334 z m 20.8,0 c 0.23101,-0.092439 0.50701,-0.08107 0.61334,0.025264 0.10634,0.1063335 -0.0827,0.1819651 -0.42,0.1680704 -0.3728,-0.015354 -0.4486,-0.091181 -0.19334,-0.1933334 z"
         style="fill:#d0d8e7;stroke-width:0.32" />
      <path
         id="path72"
         d="m 768.64,512.83917 c 0,-0.0664 0.252,-0.31843 0.56,-0.56 0.50755,-0.39802 0.51885,-0.38672 0.12083,0.12083 -0.41805,0.53302 -0.68083,0.70256 -0.68083,0.43917 z m -84.16,-80.64 c 0,-0.0664 0.252,-0.31843 0.56,-0.56 0.50755,-0.39802 0.51885,-0.38672 0.12083,0.12083 -0.41805,0.53302 -0.68083,0.70256 -0.68083,0.43917 z M 768.91917,431.76 c -0.39802,-0.50755 -0.38672,-0.51885 0.12083,-0.12083 0.53302,0.41805 0.70256,0.68083 0.43917,0.68083 -0.0664,0 -0.31843,-0.252 -0.56,-0.56 z"
         style="fill:#bacde6;stroke-width:0.32" />
      <path
         id="path70"
         d="m 467.78,959.78141 c 0.23101,-0.0925 0.50701,-0.0811 0.61334,0.0253 0.10634,0.10633 -0.0827,0.18198 -0.42,0.16809 -0.3728,-0.0154 -0.4486,-0.0912 -0.19334,-0.19334 z m 24,0 c 0.23101,-0.0925 0.50701,-0.0811 0.61334,0.0253 0.10634,0.10633 -0.0827,0.18198 -0.42,0.16809 -0.3728,-0.0154 -0.4486,-0.0912 -0.19334,-0.19334 z M 0.02526316,491.97334 c 0.01535485,-0.3728 0.09118089,-0.4486 0.19333333,-0.19334 0.0924386,0.23101 0.0810702,0.50701 -0.0252632,0.61334 -0.10633333,0.10634 -0.18196491,-0.0827 -0.16807013,-0.42 z m 959.67998684,0 c 0.0154,-0.3728 0.0912,-0.4486 0.19334,-0.19334 0.0924,0.23101 0.0811,0.50701 -0.0253,0.61334 -0.10633,0.10634 -0.18198,-0.0827 -0.16809,-0.42 z m -959.67998684,-24 c 0.01535485,-0.3728 0.09118089,-0.4486 0.19333333,-0.19334 0.0924386,0.23101 0.0810702,0.50701 -0.0252632,0.61334 -0.10633333,0.10634 -0.18196491,-0.0827 -0.16807013,-0.42 z m 959.67998684,0 c 0.0154,-0.3728 0.0912,-0.4486 0.19334,-0.19334 0.0924,0.23101 0.0811,0.50701 -0.0253,0.61334 -0.10633,0.10634 -0.18198,-0.0827 -0.16809,-0.42 z M 467.78,0.10140351 c 0.23101,-0.0924386 0.50701,-0.08107018 0.61334,0.0252632 0.10634,0.10633333 -0.0827,0.18196491 -0.42,0.16807017 -0.3728,-0.0153548 -0.4486,-0.0911809 -0.19334,-0.19333337 z m 24,0 c 0.23101,-0.0924386 0.50701,-0.08107018 0.61334,0.0252632 0.10634,0.10633333 -0.0827,0.18196491 -0.42,0.16807017 -0.3728,-0.0153548 -0.4486,-0.0911809 -0.19334,-0.19333337 z"
         style="fill:#899dc3;stroke-width:0.32" />
      <path
         id="path68"
         d="m 911.38525,488.77334 c 0.0154,-0.3728 0.0912,-0.4486 0.19334,-0.19334 0.0924,0.23101 0.0811,0.50701 -0.0253,0.61334 -0.10633,0.10634 -0.18198,-0.0827 -0.16809,-0.42 z m 0,-21.44 c 0.0154,-0.3728 0.0912,-0.4486 0.19334,-0.19334 0.0924,0.23101 0.0811,0.50701 -0.0253,0.61334 -0.10633,0.10634 -0.18198,-0.0827 -0.16809,-0.42 z"
         style="fill:#729bce;stroke-width:0.32" />
      <path
         id="path66"
         d="m 469.06,909.86141 c 0.23101,-0.0924 0.50701,-0.0811 0.61334,0.0253 0.10634,0.10633 -0.0827,0.18198 -0.42,0.16809 -0.3728,-0.0154 -0.4486,-0.0912 -0.19334,-0.19334 z m 20.8,0 c 0.23101,-0.0924 0.50701,-0.0811 0.61334,0.0253 0.10634,0.10633 -0.0827,0.18198 -0.42,0.16809 -0.3728,-0.0154 -0.4486,-0.0912 -0.19334,-0.19334 z M 469.06,46.181405 c 0.23101,-0.09244 0.50701,-0.08107 0.61334,0.02525 0.10634,0.106333 -0.0827,0.181965 -0.42,0.16807 -0.3728,-0.01536 -0.4486,-0.09118 -0.19334,-0.193331 z m 20.8,0 c 0.23101,-0.09244 0.50701,-0.08107 0.61334,0.02525 0.10634,0.106333 -0.0827,0.181965 -0.42,0.16807 -0.3728,-0.01536 -0.4486,-0.09118 -0.19334,-0.193331 z"
         style="fill:#6e98cd;stroke-width:0.32" />
      <path
         id="path64"
         d="m 468.74,959.78141 c 0.23101,-0.0925 0.50701,-0.0811 0.61334,0.0253 0.10634,0.10633 -0.0827,0.18198 -0.42,0.16809 -0.3728,-0.0154 -0.4486,-0.0912 -0.19334,-0.19334 z m 22.08,0 c 0.23101,-0.0925 0.50701,-0.0811 0.61334,0.0253 0.10634,0.10633 -0.0827,0.18198 -0.42,0.16809 -0.3728,-0.0154 -0.4486,-0.0912 -0.19334,-0.19334 z M 0.02526316,491.01334 c 0.01535485,-0.3728 0.09118089,-0.4486 0.19333333,-0.19334 0.0924386,0.23101 0.0810702,0.50701 -0.0252632,0.61334 -0.10633333,0.10634 -0.18196491,-0.0827 -0.16807013,-0.42 z m 959.67998684,0 c 0.0154,-0.3728 0.0912,-0.4486 0.19334,-0.19334 0.0924,0.23101 0.0811,0.50701 -0.0253,0.61334 -0.10633,0.10634 -0.18198,-0.0827 -0.16809,-0.42 z m -959.67998684,-22.08 c 0.01535485,-0.3728 0.09118089,-0.4486 0.19333333,-0.19334 0.0924386,0.23101 0.0810702,0.50701 -0.0252632,0.61334 -0.10633333,0.10634 -0.18196491,-0.0827 -0.16807013,-0.42 z m 959.67998684,0 c 0.0154,-0.3728 0.0912,-0.4486 0.19334,-0.19334 0.0924,0.23101 0.0811,0.50701 -0.0253,0.61334 -0.10633,0.10634 -0.18198,-0.0827 -0.16809,-0.42 z M 468.74,0.10140351 c 0.23101,-0.0924386 0.50701,-0.08107018 0.61334,0.0252632 0.10634,0.10633333 -0.0827,0.18196491 -0.42,0.16807017 -0.3728,-0.0153548 -0.4486,-0.0911809 -0.19334,-0.19333337 z m 22.08,0 c 0.23101,-0.0924386 0.50701,-0.08107018 0.61334,0.0252632 0.10634,0.10633333 -0.0827,0.18196491 -0.42,0.16807017 -0.3728,-0.0153548 -0.4486,-0.0911809 -0.19334,-0.19333337 z"
         style="fill:#7c92bc;stroke-width:0.32" />
      <path
         id="path62"
         d="m 470.02,909.86141 c 0.23101,-0.0924 0.50701,-0.0811 0.61334,0.0253 0.10634,0.10633 -0.0827,0.18198 -0.42,0.16809 -0.3728,-0.0154 -0.4486,-0.0912 -0.19334,-0.19334 z m 18.88,0 c 0.23101,-0.0924 0.50701,-0.0811 0.61334,0.0253 0.10634,0.10633 -0.0827,0.18198 -0.42,0.16809 -0.3728,-0.0154 -0.4486,-0.0912 -0.19334,-0.19334 z"
         style="fill:#5e8dc8;stroke-width:0.32" />
      <path
         id="path60"
         d="m 144.91918,814.48 c -0.39804,-0.50755 -0.38672,-0.51885 0.12082,-0.12083 0.53304,0.41805 0.70255,0.68083 0.43918,0.68083 -0.0665,0 -0.31845,-0.252 -0.56,-0.56 z M 814.4,814.91917 c 0,-0.0664 0.252,-0.31843 0.56,-0.56 0.50755,-0.39802 0.51885,-0.38672 0.12083,0.12083 -0.41805,0.53302 -0.68083,0.70256 -0.68083,0.43917 z"
         style="fill:#7089b7;stroke-width:0.32" />
      <path
         id="path58"
         d="m 143.95918,813.52 c -0.39804,-0.50755 -0.38672,-0.51885 0.12082,-0.12083 0.308,0.24157 0.56,0.49357 0.56,0.56 0,0.26339 -0.26278,0.0938 -0.68082,-0.43917 z M 815.36,813.95917 c 0,-0.0664 0.252,-0.31843 0.56,-0.56 0.50755,-0.39802 0.51885,-0.38672 0.12083,0.12083 -0.41805,0.53302 -0.68083,0.70256 -0.68083,0.43917 z M 0.02526316,490.05334 c 0.01535485,-0.3728 0.09118089,-0.4486 0.19333333,-0.19334 0.0924386,0.23101 0.0810702,0.50701 -0.0252632,0.61334 -0.10633333,0.10634 -0.18196491,-0.0827 -0.16807013,-0.42 z m 0,-20.16 c 0.01535485,-0.3728 0.09118089,-0.4486 0.19333333,-0.19334 0.0924386,0.23101 0.0810702,0.50701 -0.0252632,0.61334 -0.10633333,0.10634 -0.18196491,-0.0827 -0.16807013,-0.42 z"
         style="fill:#6e88b6;stroke-width:0.32" />
      <path
         id="path56"
         d="m 470.02,959.78141 c 0.23101,-0.0925 0.50701,-0.0811 0.61334,0.0253 0.10634,0.10633 -0.0827,0.18198 -0.42,0.16809 -0.3728,-0.0154 -0.4486,-0.0912 -0.19334,-0.19334 z m 19.52,0 c 0.23101,-0.0925 0.50701,-0.0811 0.61334,0.0253 0.10634,0.10633 -0.0827,0.18198 -0.42,0.16809 -0.3728,-0.0154 -0.4486,-0.0912 -0.19334,-0.19334 z M 146.19918,815.76 c -0.39804,-0.50755 -0.38672,-0.51885 0.12082,-0.12083 0.308,0.24157 0.56,0.49357 0.56,0.56 0,0.26339 -0.26278,0.0938 -0.68082,-0.43917 z M 813.12,816.19917 c 0,-0.0664 0.252,-0.31843 0.56,-0.56 0.50755,-0.39802 0.51885,-0.38672 0.12083,0.12083 -0.41805,0.53302 -0.68083,0.70256 -0.68083,0.43917 z M 143.68,146.75918 c 0,-0.0664 0.252,-0.31845 0.56,-0.56 0.50754,-0.39804 0.51886,-0.38672 0.12082,0.12082 -0.41804,0.53304 -0.68082,0.70255 -0.68082,0.43918 z M 815.63917,146.32 c -0.39802,-0.50754 -0.38672,-0.51886 0.12083,-0.12082 0.53302,0.41804 0.70256,0.68082 0.43917,0.68082 -0.0664,0 -0.31843,-0.252 -0.56,-0.56 z M 145.92,144.51918 c 0,-0.0665 0.252,-0.31845 0.56,-0.56 0.50754,-0.39804 0.51886,-0.38672 0.12082,0.12082 -0.41804,0.53304 -0.68082,0.70255 -0.68082,0.43918 z M 813.39917,144.08 c -0.39802,-0.50754 -0.38672,-0.51886 0.12083,-0.12082 0.53302,0.41804 0.70256,0.68082 0.43917,0.68082 -0.0664,0 -0.31843,-0.252 -0.56,-0.56 z M 143.68,137.47918 c 0,-0.0665 0.252,-0.31845 0.56,-0.56 0.50754,-0.39804 0.51886,-0.38672 0.12082,0.12082 -0.41804,0.53304 -0.68082,0.70255 -0.68082,0.43918 z M 815.63917,137.04 c -0.39802,-0.50754 -0.38672,-0.51886 0.12083,-0.12082 0.53302,0.41804 0.70256,0.68082 0.43917,0.68082 -0.0664,0 -0.31843,-0.252 -0.56,-0.56 z M 470.02,0.10140351 c 0.23101,-0.0924386 0.50701,-0.08107018 0.61334,0.0252632 0.10634,0.10633333 -0.0827,0.18196491 -0.42,0.16807017 -0.3728,-0.0153548 -0.4486,-0.0911809 -0.19334,-0.19333337 z m 19.52,0 c 0.23101,-0.0924386 0.50701,-0.08107018 0.61334,0.0252632 0.10634,0.10633333 -0.0827,0.18196491 -0.42,0.16807017 -0.3728,-0.0153548 -0.4486,-0.0911809 -0.19334,-0.19333337 z"
         style="fill:#6a84b4;stroke-width:0.32" />
      <path
         id="path54"
         d="m 471.3,909.86141 c 0.23101,-0.0924 0.50701,-0.0811 0.61334,0.0253 0.10634,0.10633 -0.0827,0.18198 -0.42,0.16809 -0.3728,-0.0154 -0.4486,-0.0912 -0.19334,-0.19334 z m 16.32,0 c 0.23101,-0.0924 0.50701,-0.0811 0.61334,0.0253 0.10634,0.10633 -0.0827,0.18198 -0.42,0.16809 -0.3728,-0.0154 -0.4486,-0.0912 -0.19334,-0.19334 z M 471.3,46.181405 c 0.23101,-0.09244 0.50701,-0.08107 0.61334,0.02525 0.10634,0.106333 -0.0827,0.181965 -0.42,0.16807 -0.3728,-0.01536 -0.4486,-0.09118 -0.19334,-0.193331 z m 16.32,0 c 0.23101,-0.09244 0.50701,-0.08107 0.61334,0.02525 0.10634,0.106333 -0.0827,0.181965 -0.42,0.16807 -0.3728,-0.01536 -0.4486,-0.09118 -0.19334,-0.193331 z"
         style="fill:#4e81c2;stroke-width:0.32" />
      <path
         id="path52"
         d="m 0.02526316,489.09334 c 0.01535485,-0.3728 0.09118089,-0.4486 0.19333333,-0.19334 0.0924386,0.23101 0.0810702,0.50701 -0.0252632,0.61334 -0.10633333,0.10634 -0.18196491,-0.0827 -0.16807013,-0.42 z m 959.67998684,0 c 0.0154,-0.3728 0.0912,-0.4486 0.19334,-0.19334 0.0924,0.23101 0.0811,0.50701 -0.0253,0.61334 -0.10633,0.10634 -0.18198,-0.0827 -0.16809,-0.42 z m -959.67998684,-18.24 c 0.01535485,-0.3728 0.09118089,-0.4486 0.19333333,-0.19334 0.0924386,0.23101 0.0810702,0.50701 -0.0252632,0.61334 -0.10633333,0.10634 -0.18196491,-0.0827 -0.16807013,-0.42 z m 959.67998684,0 c 0.0154,-0.3728 0.0912,-0.4486 0.19334,-0.19334 0.0924,0.23101 0.0811,0.50701 -0.0253,0.61334 -0.10633,0.10634 -0.18198,-0.0827 -0.16809,-0.42 z"
         style="fill:#627eb0;stroke-width:0.32" />
      <path
         id="path50"
         d="m 138.83918,817.68 c -0.39804,-0.50755 -0.38672,-0.51885 0.12082,-0.12083 0.308,0.24157 0.56,0.49357 0.56,0.56 0,0.26339 -0.26278,0.0938 -0.68082,-0.43917 z M 820.48,818.11917 c 0,-0.0664 0.252,-0.31843 0.56,-0.56 0.50755,-0.39802 0.51885,-0.38672 0.12083,0.12083 -0.41805,0.53302 -0.68083,0.70256 -0.68083,0.43917 z"
         style="fill:#5d79ad;stroke-width:0.32" />
      <path
         id="path48"
         d="m 472.26,909.86141 c 0.23101,-0.0924 0.50701,-0.0811 0.61334,0.0253 0.10634,0.10633 -0.0827,0.18198 -0.42,0.16809 -0.3728,-0.0154 -0.4486,-0.0912 -0.19334,-0.19334 z m 14.4,0 c 0.23101,-0.0924 0.50701,-0.0811 0.61334,0.0253 0.10634,0.10633 -0.0827,0.18198 -0.42,0.16809 -0.3728,-0.0154 -0.4486,-0.0912 -0.19334,-0.19334 z M 472.26,46.181405 c 0.23101,-0.09244 0.50701,-0.08107 0.61334,0.02525 0.10634,0.106333 -0.0827,0.181965 -0.42,0.16807 -0.3728,-0.01536 -0.4486,-0.09118 -0.19334,-0.193331 z m 14.4,0 c 0.23101,-0.09244 0.50701,-0.08107 0.61334,0.02525 0.10634,0.106333 -0.0827,0.181965 -0.42,0.16807 -0.3728,-0.01536 -0.4486,-0.09118 -0.19334,-0.193331 z"
         style="fill:#4077bd;stroke-width:0.32" />
      <path
         id="path46"
         d="m 140.45578,819.28 -0.77578,-0.88 0.88,0.77578 c 0.484,0.42668 0.88,0.82268 0.88,0.88 0,0.25097 -0.25914,0.0467 -0.98422,-0.77578 z M 819.2,819.36 c 0.41334,-0.44 0.82355,-0.8 0.91155,-0.8 0.088,0 -0.17821,0.36 -0.59155,0.8 -0.41334,0.44 -0.82355,0.8 -0.91155,0.8 -0.088,0 0.17821,-0.36 0.59155,-0.8 z M 0.02526316,488.13334 c 0.01535485,-0.3728 0.09118089,-0.4486 0.19333333,-0.19334 0.0924386,0.23101 0.0810702,0.50701 -0.0252632,0.61334 -0.10633333,0.10634 -0.18196491,-0.0827 -0.16807013,-0.42 z m 0,-16.32 c 0.01535485,-0.3728 0.09118089,-0.4486 0.19333333,-0.19334 0.0924386,0.23101 0.0810702,0.50701 -0.0252632,0.61334 -0.10633333,0.10634 -0.18196491,-0.0827 -0.16807013,-0.42 z M 140.48,140.64 c 0.41336,-0.44 0.82356,-0.8 0.91156,-0.8 0.088,0 -0.1782,0.36 -0.59156,0.8 -0.41336,0.44 -0.82356,0.8 -0.91156,0.8 -0.088,0 0.1782,-0.36 0.59156,-0.8 z m 678.5296,-0.24 -0.6096,-0.72 0.72,0.6096 c 0.67661,0.57287 0.86566,0.8304 0.6096,0.8304 -0.0607,0 -0.38474,-0.324 -0.72,-0.72 z"
         style="fill:#5472a9;stroke-width:0.32" />
      <path
         id="path44"
         d="m 472.26,959.78141 c 0.23101,-0.0925 0.50701,-0.0811 0.61334,0.0253 0.10634,0.10633 -0.0827,0.18198 -0.42,0.16809 -0.3728,-0.0154 -0.4486,-0.0912 -0.19334,-0.19334 z m 15.04,0 c 0.23101,-0.0925 0.50701,-0.0811 0.61334,0.0253 0.10634,0.10633 -0.0827,0.18198 -0.42,0.16809 -0.3728,-0.0154 -0.4486,-0.0912 -0.19334,-0.19334 z M 0.02526316,487.17334 c 0.01535485,-0.3728 0.09118089,-0.4486 0.19333333,-0.19334 0.0924386,0.23101 0.0810702,0.50701 -0.0252632,0.61334 -0.10633333,0.10634 -0.18196491,-0.0827 -0.16807013,-0.42 z m 959.67998684,0 c 0.0154,-0.3728 0.0912,-0.4486 0.19334,-0.19334 0.0924,0.23101 0.0811,0.50701 -0.0253,0.61334 -0.10633,0.10634 -0.18198,-0.0827 -0.16809,-0.42 z M 6.5024237,480 c 0,-1.144 0.058078,-1.612 0.129063,-1.04 0.070984,0.572 0.070984,1.508 0,2.08 -0.070985,0.572 -0.129063,0.104 -0.129063,-1.04 z m 946.8800063,0 c 0,-1.144 0.0581,-1.612 0.12906,-1.04 0.071,0.572 0.071,1.508 0,2.08 -0.071,0.572 -0.12906,0.104 -0.12906,-1.04 z M 0.02526316,472.77334 c 0.01535485,-0.3728 0.09118089,-0.4486 0.19333333,-0.19334 0.0924386,0.23101 0.0810702,0.50701 -0.0252632,0.61334 -0.10633333,0.10634 -0.18196491,-0.0827 -0.16807013,-0.42 z m 959.67998684,0 c 0.0154,-0.3728 0.0912,-0.4486 0.19334,-0.19334 0.0924,0.23101 0.0811,0.50701 -0.0253,0.61334 -0.10633,0.10634 -0.18198,-0.0827 -0.16809,-0.42 z M 472.26,0.10140351 c 0.23101,-0.0924386 0.50701,-0.08107018 0.61334,0.0252632 0.10634,0.10633333 -0.0827,0.18196491 -0.42,0.16807017 -0.3728,-0.0153548 -0.4486,-0.0911809 -0.19334,-0.19333337 z m 15.04,0 c 0.23101,-0.0924386 0.50701,-0.08107018 0.61334,0.0252632 0.10634,0.10633333 -0.0827,0.18196491 -0.42,0.16807017 -0.3728,-0.0153548 -0.4486,-0.0911809 -0.19334,-0.19333337 z"
         style="fill:#4b6aa4;stroke-width:0.32" />
      <path
         id="path42"
         d="m 473.52,909.86806 c 0.22,-0.0888 0.58,-0.0888 0.8,0 0.22,0.0888 0.04,0.16141 -0.4,0.16141 -0.44,0 -0.62,-0.0726 -0.4,-0.16141 z m 11.52,0 c 0.22,-0.0888 0.58,-0.0888 0.8,0 0.22,0.0888 0.04,0.16141 -0.4,0.16141 -0.44,0 -0.62,-0.0726 -0.4,-0.16141 z M 473.52,46.18807 c 0.22,-0.08877 0.58,-0.08877 0.8,0 0.22,0.08877 0.04,0.161405 -0.4,0.161405 -0.44,0 -0.62,-0.07263 -0.4,-0.161405 z m 11.52,0 c 0.22,-0.08877 0.58,-0.08877 0.8,0 0.22,0.08877 0.04,0.161405 -0.4,0.161405 -0.44,0 -0.62,-0.07263 -0.4,-0.161405 z"
         style="fill:#326db8;stroke-width:0.32" />
      <path
         id="path40"
         d="m 47.742384,483.36 c 0.0065,-0.528 0.07824,-0.70525 0.159373,-0.39392 0.08113,0.31136 0.0758,0.74336 -0.01187,0.96 -0.08766,0.21667 -0.154039,-0.0381 -0.147517,-0.56608 z m 863.679986,0 c 0.006,-0.528 0.0782,-0.70525 0.15939,-0.39392 0.0811,0.31136 0.0758,0.74336 -0.0118,0.96 -0.0877,0.21667 -0.15402,-0.0381 -0.14752,-0.56608 z M 47.742384,472.8 c 0.0065,-0.528 0.07824,-0.70525 0.159373,-0.39392 0.08113,0.31136 0.0758,0.74336 -0.01187,0.96 -0.08766,0.21667 -0.154039,-0.0381 -0.147517,-0.56608 z m 863.679986,0 c 0.006,-0.528 0.0782,-0.70525 0.15939,-0.39392 0.0811,0.31136 0.0758,0.74336 -0.0118,0.96 -0.0877,0.21667 -0.15402,-0.0381 -0.14752,-0.56608 z"
         style="fill:#2c69b6;stroke-width:0.32" />
      <path
         id="path38"
         d="m 473.68608,959.77824 c 0.31136,-0.0811 0.74336,-0.0758 0.96,0.0118 0.21667,0.0877 -0.0381,0.15402 -0.56608,0.14752 -0.528,-0.006 -0.70525,-0.0782 -0.39392,-0.15939 z m 11.84,0 c 0.31136,-0.0811 0.74336,-0.0758 0.96,0.0118 0.21667,0.0877 -0.0381,0.15402 -0.56608,0.14752 -0.528,-0.006 -0.70525,-0.0782 -0.39392,-0.15939 z M 477.2,953.37078 c 0.484,-0.0733 1.276,-0.0733 1.76,0 0.484,0.0734 0.088,0.13332 -0.88,0.13332 -0.968,0 -1.364,-0.06 -0.88,-0.13332 z m 3.84,0 c 0.484,-0.0733 1.276,-0.0733 1.76,0 0.484,0.0734 0.088,0.13332 -0.88,0.13332 -0.968,0 -1.364,-0.06 -0.88,-0.13332 z M 478.32,6.4840826 c 0.924,-0.064641 2.436,-0.064641 3.36,0 0.924,0.064641 0.168,0.1175286 -1.68,0.1175286 -1.848,0 -2.604,-0.052888 -1.68,-0.1175286 z m -4.63392,-6.38583963 c 0.31136,-0.08113389 0.74336,-0.07579812 0.96,0.01185728 0.21667,0.0876554 -0.0381,0.15403767 -0.56608,0.14751617 -0.528,-0.006522 -0.70525,-0.0782396 -0.39392,-0.15937345 z m 11.84,0 c 0.31136,-0.08113389 0.74336,-0.07579812 0.96,0.01185728 0.21667,0.0876554 -0.0381,0.15403767 -0.56608,0.14751617 -0.528,-0.006522 -0.70525,-0.0782396 -0.39392,-0.15937345 z"
         style="fill:#3e609e;stroke-width:0.32" />
      <path
         id="path36"
         d="m 0.07424086,485.44 c 0,-0.616 0.06585449,-0.868 0.1463433,-0.56 0.0804888,0.308 0.0804888,0.812 0,1.12 -0.0804888,0.308 -0.1463433,0.056 -0.1463433,-0.56 z m 959.67999914,0 c 0,-0.616 0.0659,-0.868 0.14634,-0.56 0.0805,0.308 0.0805,0.812 0,1.12 -0.0805,0.308 -0.14634,0.056 -0.14634,-0.56 z M 6.4871565,483.52 c 0,-0.792 0.062405,-1.116 0.1386781,-0.72 0.076273,0.396 0.076273,1.044 0,1.44 -0.076273,0.396 -0.1386781,0.072 -0.1386781,-0.72 z M 953.36717,483.2 c 0,-0.792 0.0624,-1.116 0.13865,-0.72 0.0763,0.396 0.0763,1.044 0,1.44 -0.0762,0.396 -0.13865,0.072 -0.13865,-0.72 z m 0,-6.4 c 0,-0.792 0.0624,-1.116 0.13865,-0.72 0.0763,0.396 0.0763,1.044 0,1.44 -0.0762,0.396 -0.13865,0.072 -0.13865,-0.72 z M 6.4871565,476.48 c 0,-0.792 0.062405,-1.116 0.1386781,-0.72 0.076273,0.396 0.076273,1.044 0,1.44 -0.076273,0.396 -0.1386781,0.072 -0.1386781,-0.72 z m -6.41291564,-1.92 c 0,-0.616 0.06585449,-0.868 0.1463433,-0.56 0.0804888,0.308 0.0804888,0.812 0,1.12 -0.0804888,0.308 -0.1463433,0.056 -0.1463433,-0.56 z m 959.67999914,0 c 0,-0.616 0.0659,-0.868 0.14634,-0.56 0.0805,0.308 0.0805,0.812 0,1.12 -0.0805,0.308 -0.14634,0.056 -0.14634,-0.56 z"
         style="fill:#3a5d9c;stroke-width:0.32" />
      <path
         id="path34"
         d="m 475.60438,909.85037 c 0.48644,-0.0735 1.20644,-0.0716 1.6,0.004 0.3936,0.0759 -0.004,0.13613 -0.88438,0.13373 -0.88,-0.003 -1.20202,-0.0645 -0.71562,-0.13812 z m 6.72,0 c 0.48644,-0.0735 1.20644,-0.0716 1.6,0.004 0.3936,0.0759 -0.004,0.13613 -0.88438,0.13373 -0.88,-0.003 -1.20202,-0.0645 -0.71562,-0.13812 z M 911.45152,481.12 c 0.003,-0.88 0.0645,-1.20202 0.13811,-0.71562 0.0735,0.48644 0.0716,1.20644 -0.004,1.6 -0.0759,0.3936 -0.13613,-0.004 -0.13373,-0.88438 z M 47.767155,480.96 c 0,-0.792 0.06241,-1.116 0.138679,-0.72 0.07628,0.396 0.07628,1.044 0,1.44 -0.07627,0.396 -0.138679,0.072 -0.138679,-0.72 z m 0,-5.76 c 0,-0.792 0.06241,-1.116 0.138679,-0.72 0.07628,0.396 0.07628,1.044 0,1.44 -0.07627,0.396 -0.138679,0.072 -0.138679,-0.72 z m 863.684365,-0.16 c 0.003,-0.88 0.0645,-1.20202 0.13811,-0.71562 0.0735,0.48644 0.0716,1.20644 -0.004,1.6 -0.0759,0.3936 -0.13613,-0.004 -0.13373,-0.88438 z M 475.6,46.1708 c 0.484,-0.07332 1.276,-0.07332 1.76,0 0.484,0.07332 0.088,0.133309 -0.88,0.133309 -0.968,0 -1.364,-0.05999 -0.88,-0.133309 z m 6.4,0 c 0.484,-0.07332 1.276,-0.07332 1.76,0 0.484,0.07332 0.088,0.133309 -0.88,0.133309 -0.968,0 -1.364,-0.05999 -0.88,-0.133309 z"
         style="fill:#1f60b2;stroke-width:0.32" />
      <path
         id="path32"
         d="m 475.92438,959.77037 c 0.48644,-0.0735 1.20644,-0.0716 1.6,0.004 0.3936,0.0759 -0.004,0.13613 -0.88438,0.13373 -0.88,-0.003 -1.20202,-0.0646 -0.71562,-0.13812 z m 6.72,0 c 0.48644,-0.0735 1.20644,-0.0716 1.6,0.004 0.3936,0.0759 -0.004,0.13613 -0.88438,0.13373 -0.88,-0.003 -1.20202,-0.0646 -0.71562,-0.13812 z M 474.48,953.37418 c 0.396,-0.0763 1.044,-0.0763 1.44,0 0.396,0.0762 0.072,0.13865 -0.72,0.13865 -0.792,0 -1.116,-0.0624 -0.72,-0.13865 z m 9.6,0 c 0.396,-0.0763 1.044,-0.0763 1.44,0 0.396,0.0762 0.072,0.13865 -0.72,0.13865 -0.792,0 -1.116,-0.0624 -0.72,-0.13865 z M 474.48,6.4941654 c 0.396,-0.076273 1.044,-0.076273 1.44,0 0.396,0.076273 0.072,0.1386781 -0.72,0.1386781 -0.792,0 -1.116,-0.062405 -0.72,-0.1386781 z m 9.6,0 c 0.396,-0.076273 1.044,-0.076273 1.44,0 0.396,0.076273 0.072,0.1386781 -0.72,0.1386781 -0.792,0 -1.116,-0.062405 -0.72,-0.1386781 z m -8.16,-6.40336682 c 0.484,-0.07331989 1.276,-0.07331989 1.76,0 0.484,0.07331988 0.088,0.13330888 -0.88,0.13330888 -0.968,0 -1.364,-0.059989 -0.88,-0.13330888 z m 6.4,0 c 0.484,-0.07331989 1.276,-0.07331989 1.76,0 0.484,0.07331988 0.088,0.13330888 -0.88,0.13330888 -0.968,0 -1.364,-0.059989 -0.88,-0.13330888 z"
         style="fill:#305497;stroke-width:0.32" />
      <path
         id="path30"
         d="m 778.56,789.63917 c 0,-0.0664 0.252,-0.31843 0.56,-0.56 0.50755,-0.39802 0.51885,-0.38672 0.12083,0.12083 -0.41805,0.53302 -0.68083,0.70256 -0.68083,0.43917 z M 168.27918,777.36 c -0.39804,-0.50755 -0.38672,-0.51885 0.12082,-0.12083 0.308,0.24157 0.56,0.49357 0.56,0.56 0,0.26339 -0.26278,0.0938 -0.68082,-0.43917 z M 790.4,777.79917 c 0,-0.0664 0.252,-0.31843 0.56,-0.56 0.50755,-0.39802 0.51885,-0.38672 0.12083,0.12083 -0.41805,0.53302 -0.68083,0.70256 -0.68083,0.43917 z m -240.32,-94.72 c 0,-0.0664 0.252,-0.31843 0.56,-0.56 0.50755,-0.39802 0.51885,-0.38672 0.12083,0.12083 -0.41805,0.53302 -0.68083,0.70256 -0.68083,0.43917 z m 7.04,-7.36 c 0,-0.0664 0.252,-0.31843 0.56,-0.56 0.50755,-0.39802 0.51885,-0.38672 0.12083,0.12083 -0.41805,0.53302 -0.68083,0.70256 -0.68083,0.43917 z m -22.4,-5.76 c 0,-0.0664 0.252,-0.31843 0.56,-0.56 0.50755,-0.39802 0.51885,-0.38672 0.12083,0.12083 -0.41805,0.53302 -0.68083,0.70256 -0.68083,0.43917 z m 29.44,-1.6 c 0,-0.0664 0.252,-0.31843 0.56,-0.56 0.50755,-0.39802 0.51885,-0.38672 0.12083,0.12083 -0.41805,0.53302 -0.68083,0.70256 -0.68083,0.43917 z m -22.4,-5.76 c 0,-0.0664 0.252,-0.31843 0.56,-0.56 0.50755,-0.39802 0.51885,-0.38672 0.12083,0.12083 -0.41805,0.53302 -0.68083,0.70256 -0.68083,0.43917 z m 29.44,-1.6 c 0,-0.0664 0.252,-0.31843 0.56,-0.56 0.50755,-0.39802 0.51885,-0.38672 0.12083,0.12083 -0.41805,0.53302 -0.68083,0.70256 -0.68083,0.43917 z m -22.4,-5.76 c 0,-0.0664 0.252,-0.31843 0.56,-0.56 0.50755,-0.39802 0.51885,-0.38672 0.12083,0.12083 -0.41805,0.53302 -0.68083,0.70256 -0.68083,0.43917 z m 29.44,-1.6 c 0,-0.0664 0.252,-0.31843 0.56,-0.56 0.50755,-0.39802 0.51885,-0.38672 0.12083,0.12083 -0.41805,0.53302 -0.68083,0.70256 -0.68083,0.43917 z m -22.4,-5.76 c 0,-0.0664 0.252,-0.31843 0.56,-0.56 0.50755,-0.39802 0.51885,-0.38672 0.12083,0.12083 -0.41805,0.53302 -0.68083,0.70256 -0.68083,0.43917 z m 29.44,-1.6 c 0,-0.0664 0.252,-0.31843 0.56,-0.56 0.50755,-0.39802 0.51885,-0.38672 0.12083,0.12083 -0.41805,0.53302 -0.68083,0.70256 -0.68083,0.43917 z m -22.4,-5.76 c 0,-0.0664 0.252,-0.31843 0.56,-0.56 0.50755,-0.39802 0.51885,-0.38672 0.12083,0.12083 -0.41805,0.53302 -0.68083,0.70256 -0.68083,0.43917 z m 29.44,-1.6 c 0,-0.0664 0.252,-0.31843 0.56,-0.56 0.50755,-0.39802 0.51885,-0.38672 0.12083,0.12083 -0.41805,0.53302 -0.68083,0.70256 -0.68083,0.43917 z m 12.48,-42.24 c 0,-0.0664 0.252,-0.31843 0.56,-0.56 0.50755,-0.39802 0.51885,-0.38672 0.12083,0.12083 -0.41805,0.53302 -0.68083,0.70256 -0.68083,0.43917 z m 29.44,-1.6 c 0,-0.0664 0.252,-0.31843 0.56,-0.56 0.50755,-0.39802 0.51885,-0.38672 0.12083,0.12083 -0.41805,0.53302 -0.68083,0.70256 -0.68083,0.43917 z m -22.4,-5.76 c 0,-0.0664 0.252,-0.31843 0.56,-0.56 0.50755,-0.39802 0.51885,-0.38672 0.12083,0.12083 -0.41805,0.53302 -0.68083,0.70256 -0.68083,0.43917 z m 29.44,-1.6 c 0,-0.0664 0.252,-0.31843 0.56,-0.56 0.50755,-0.39802 0.51885,-0.38672 0.12083,0.12083 -0.41805,0.53302 -0.68083,0.70256 -0.68083,0.43917 z m -22.4,-5.76 c 0,-0.0664 0.252,-0.31843 0.56,-0.56 0.50755,-0.39802 0.51885,-0.38672 0.12083,0.12083 -0.41805,0.53302 -0.68083,0.70256 -0.68083,0.43917 z m 29.44,-1.6 c 0,-0.0664 0.252,-0.31843 0.56,-0.56 0.50755,-0.39802 0.51885,-0.38672 0.12083,0.12083 -0.41805,0.53302 -0.68083,0.70256 -0.68083,0.43917 z m -22.4,-5.76 c 0,-0.0664 0.252,-0.31843 0.56,-0.56 0.50755,-0.39802 0.51885,-0.38672 0.12083,0.12083 -0.41805,0.53302 -0.68083,0.70256 -0.68083,0.43917 z m 29.44,-1.6 c 0,-0.0664 0.252,-0.31843 0.56,-0.56 0.50755,-0.39802 0.51885,-0.38672 0.12083,0.12083 -0.41805,0.53302 -0.68083,0.70256 -0.68083,0.43917 z m -22.4,-5.76 c 0,-0.0664 0.252,-0.31843 0.56,-0.56 0.50755,-0.39802 0.51885,-0.38672 0.12083,0.12083 -0.41805,0.53302 -0.68083,0.70256 -0.68083,0.43917 z m 29.44,-1.6 c 0,-0.0664 0.252,-0.31843 0.56,-0.56 0.50755,-0.39802 0.51885,-0.38672 0.12083,0.12083 -0.41805,0.53302 -0.68083,0.70256 -0.68083,0.43917 z m -22.4,-5.76 c 0,-0.0664 0.252,-0.31843 0.56,-0.56 0.50755,-0.39802 0.51885,-0.38672 0.12083,0.12083 C 640.26278,559.97302 640,560.14256 640,559.87917 Z m 29.44,-1.6 c 0,-0.0664 0.252,-0.31843 0.56,-0.56 0.50755,-0.39802 0.51885,-0.38672 0.12083,0.12083 -0.41805,0.53302 -0.68083,0.70256 -0.68083,0.43917 z m -22.4,-5.76 c 0,-0.0664 0.252,-0.31843 0.56,-0.56 0.50755,-0.39802 0.51885,-0.38672 0.12083,0.12083 -0.41805,0.53302 -0.68083,0.70256 -0.68083,0.43917 z m 29.44,-1.6 c 0,-0.0664 0.252,-0.31843 0.56,-0.56 0.50755,-0.39802 0.51885,-0.38672 0.12083,0.12083 -0.41805,0.53302 -0.68083,0.70256 -0.68083,0.43917 z M 684.13578,512.08 683.36,511.2 l 0.88,0.77578 c 0.8225,0.72508 1.02675,0.98422 0.77578,0.98422 -0.0573,0 -0.45332,-0.396 -0.88,-0.88 z M 769.6,512.16 c 0.41334,-0.44 0.82355,-0.8 0.91155,-0.8 0.088,0 -0.17821,0.36 -0.59155,0.8 -0.41334,0.44 -0.82355,0.8 -0.91155,0.8 -0.088,0 0.17821,-0.36 0.59155,-0.8 z M 684.32,432 c 0.31856,-0.352 0.6512,-0.64 0.7392,-0.64 0.088,0 -0.10064,0.288 -0.4192,0.64 -0.31856,0.352 -0.6512,0.64 -0.7392,0.64 -0.088,0 0.10064,-0.288 0.4192,-0.64 z m 84.62278,-0.56 -1.10278,-1.2 1.2,1.10278 c 0.66,0.60653 1.2,1.14653 1.2,1.2 0,0.24436 -0.27078,0.0141 -1.29722,-1.10278 z M 168.48,178.56 c 0.31856,-0.352 0.65119,-0.64 0.73919,-0.64 0.088,0 -0.10063,0.288 -0.41919,0.64 -0.31856,0.352 -0.65119,0.64 -0.73919,0.64 -0.088,0 0.10063,-0.288 0.41919,-0.64 z m 622.0496,-0.08 -0.6096,-0.72 0.72,0.6096 c 0.67661,0.57287 0.86566,0.8304 0.6096,0.8304 -0.0607,0 -0.38474,-0.324 -0.72,-0.72 z M 179.52,167.55918 c 0,-0.0665 0.252,-0.31845 0.56,-0.56 0.50754,-0.39804 0.51886,-0.38672 0.12082,0.12082 -0.41804,0.53304 -0.68082,0.70255 -0.68082,0.43918 z M 779.15917,167.12 c -0.39802,-0.50754 -0.38672,-0.51886 0.12083,-0.12082 0.53302,0.41804 0.70256,0.68082 0.43917,0.68082 -0.0664,0 -0.31843,-0.252 -0.56,-0.56 z"
         style="fill:#1558ae;stroke-width:0.32" />
      <path
         id="path28"
         d="m 6.4623837,485.6 c 0.00652,-0.528 0.078239,-0.70525 0.1593734,-0.39392 0.081134,0.31136 0.075798,0.74336 -0.011856,0.96 C 6.5222458,486.38275 6.4558634,486.128 6.462385,485.6 Z m 946.8799863,0 c 0.006,-0.528 0.0782,-0.70525 0.15939,-0.39392 0.0811,0.31136 0.0758,0.74336 -0.0118,0.96 -0.0876,0.21667 -0.15402,-0.0381 -0.14752,-0.56608 z M 0.08715652,482.88 c 0,-0.792 0.06240512,-1.116 0.13867804,-0.72 0.0762729,0.396 0.0762729,1.044 0,1.44 -0.0762729,0.396 -0.13867804,0.072 -0.13867804,-0.72 z m 959.68001348,0 c 0,-0.792 0.0624,-1.116 0.13865,-0.72 0.0763,0.396 0.0763,1.044 0,1.44 -0.0762,0.396 -0.13865,0.072 -0.13865,-0.72 z M 0.08715652,477.12 c 0,-0.792 0.06240512,-1.116 0.13867804,-0.72 0.0762729,0.396 0.0762729,1.044 0,1.44 -0.0762729,0.396 -0.13867804,0.072 -0.13867804,-0.72 z m 959.68001348,0 c 0,-0.792 0.0624,-1.116 0.13865,-0.72 0.0763,0.396 0.0763,1.044 0,1.44 -0.0762,0.396 -0.13865,0.072 -0.13865,-0.72 z M 6.4623837,474.4 c 0.00652,-0.528 0.078239,-0.70525 0.1593734,-0.39392 0.081134,0.31136 0.075798,0.74336 -0.011856,0.96 C 6.5222458,475.18275 6.4558634,474.928 6.462385,474.4 Z m 946.8799863,0 c 0.006,-0.528 0.0782,-0.70525 0.15939,-0.39392 0.0811,0.31136 0.0758,0.74336 -0.0118,0.96 -0.0876,0.21667 -0.15402,-0.0381 -0.14752,-0.56608 z"
         style="fill:#2c5195;stroke-width:0.32" />
      <path
         id="path26"
         d="M 468.64,909.74051 C 394.33283,907.98944 321.64781,886.90048 257.78171,848.56173 181.36591,802.68944 120.60459,733.94022 84.630726,652.64771 64.662176,607.52346 52.457168,558.556 48.976467,509.6 c -1.392726,-19.58864 -1.392726,-43.45136 0,-63.04 C 57.793165,322.55331 120.44197,207.97146 220.64,132.59512 286.59713,82.977306 365.61075,53.382032 448.16,47.375414 c 19.13968,-1.392681 43.90032,-1.392681 63.04,0 49.47587,3.600064 97.86704,15.661789 143.04771,35.655312 98.03821,43.384244 177.09731,122.443344 220.48157,220.481564 19.9935,45.18067 32.05523,93.57184 35.6553,143.04771 1.3927,19.13968 1.3927,43.90032 0,63.04 -9.13728,125.57405 -72.36887,240.27341 -174.06458,315.74563 -29.51837,21.90672 -62.84147,40.46864 -97.1487,54.11463 -38.51434,15.31942 -78.9554,24.96121 -120.2913,28.67936 -12.34406,1.11033 -16.41018,1.3054 -36,1.7272 -2.552,0.055 -8.96,-0.003 -14.24,-0.12631 z m 38.4,-143.98985 c 11.38323,-1.60919 21.11203,-6.517 29.45286,-14.8578 7.61236,-7.61238 11.88877,-15.43046 14.27693,-26.10092 0.66541,-2.973 0.75021,-4.16592 0.75021,-10.55194 0,-6.38602 -0.0848,-7.57894 -0.75021,-10.55194 -1.02528,-4.58102 -2.38665,-8.551 -4.17552,-12.17651 l -1.50413,-3.04848 78.35703,-81.93427 78.35702,-81.9343 3.41328,1.3719 c 3.80026,1.52746 10.00586,3.11779 14.13415,3.62224 3.49296,0.42685 11.89395,0.42602 15.37676,0 8.64119,-1.06067 17.84468,-4.49776 25.43162,-9.4976 12.87322,-8.48349 21.78077,-21.71008 24.85955,-36.91328 0.6465,-3.19229 0.74045,-4.5903 0.74045,-11.01629 0,-6.42598 -0.0939,-7.824 -0.74045,-11.01629 -4.50166,-22.22944 -21.50563,-39.80684 -43.66867,-45.1414 C 736.15654,414.75206 733.01222,414.4 727.04,414.4 c -5.97222,0 -9.11654,0.35206 -14.31088,1.6023 -23.12512,5.56612 -40.62048,24.52714 -44.07062,47.7626 -0.64736,4.35971 -0.64736,12.43049 0,16.7902 1.6935,11.40519 6.28732,20.9953 14.67027,30.62583 l 1.56877,1.80224 -0.81332,0.86841 c -4.76038,5.08292 -151.72444,158.69927 -152.01974,158.90093 -0.26141,0.1785 -1.27974,-0.32717 -2.95178,-1.46573 -3.0423,-2.07158 -5.92422,-3.65744 -8.8863,-4.88995 -1.19549,-0.49741 -2.11859,-1.06019 -2.05133,-1.25062 0.0672,-0.1904 13.49511,-87.97847 29.83971,-195.08458 l 29.71748,-194.73839 2.35052,-0.37399 c 7.70487,-1.2259 16.32772,-5.76793 22.31312,-11.75335 6.10045,-6.10045 10.36829,-14.28214 11.82948,-22.67782 0.64547,-3.70861 0.64547,-11.08755 0,-14.79616 -2.27594,-13.077 -10.94212,-24.67747 -22.95466,-30.72688 -2.9944,-1.50796 -8.09968,-3.17055 -11.59072,-3.77464 -3.75008,-0.64891 -10.96992,-0.64891 -14.72,0 -15.27814,2.64374 -28.04691,13.64948 -32.95914,28.40836 -1.51587,4.55447 -2.07862,8.21531 -2.07984,13.52932 -0.003,8.67132 2.09287,15.94186 6.61325,22.95261 l 1.41251,2.19069 -1.21337,1.47988 c -0.66739,0.81393 -16.23287,19.84412 -34.58999,42.28931 -21.72496,26.56303 -33.5663,40.79714 -33.92,40.77426 -0.29888,-0.0192 -1.75209,-0.28857 -3.22937,-0.5983 -3.99952,-0.83853 -10.99584,-0.55792 -14.84631,0.59542 -4.64992,1.3928 -9.08144,3.87575 -12.65491,7.09047 l -1.7072,1.53577 -2.2928,-0.94003 c -1.26105,-0.51702 -26.30576,-10.72938 -55.65488,-22.69411 L 324.4759,306.08 l 0.24205,-1.92 c 0.13312,-1.056 0.23939,-4.872 0.23613,-8.48 -0.005,-5.67808 -0.10598,-7.01063 -0.75021,-9.91193 -2.36045,-10.63059 -6.65477,-18.48467 -14.27102,-26.10092 -7.10604,-7.10604 -14.65449,-11.44562 -23.85285,-13.71294 -4.82781,-1.19002 -7.20572,-1.46153 -12.8,-1.46153 -5.59428,0 -7.97219,0.27151 -12.8,1.46153 -9.19836,2.26732 -16.74681,6.6069 -23.85285,13.71294 -7.61237,7.61237 -11.88879,15.43046 -14.27695,26.10092 -0.66539,2.97299 -0.7502,4.16591 -0.7502,10.55193 0,6.38602 0.0848,7.57894 0.7502,10.55193 2.38816,10.67046 6.66458,18.48855 14.27695,26.10093 4.05604,4.05604 7.40691,6.6313 11.79524,9.06503 4.62271,2.56371 12.04858,4.99984 17.65761,5.79277 2.88835,0.40832 11.51165,0.40832 14.4,0 5.60903,-0.79293 13.0349,-3.22906 17.65761,-5.79277 5.92761,-3.28743 12.64183,-9.06394 16.48984,-14.18691 1.06211,-1.41405 2.06164,-2.62039 2.22118,-2.68077 0.15953,-0.0604 25.10871,10.01721 55.44267,22.39462 l 55.15257,22.50442 0.15911,4.48537 c 0.19164,5.40304 1.0343,8.62928 3.46998,13.28538 3.90378,7.46246 10.66006,12.99478 19.00704,15.56368 2.70582,0.83274 3.23802,0.88634 8.8,0.88634 5.56198,0 6.09418,-0.0536 8.8,-0.88634 10.43648,-3.21197 18.27171,-11.0472 21.48368,-21.48368 0.83274,-2.70582 0.88634,-3.23802 0.88634,-8.8 0,-5.56198 -0.0536,-6.09418 -0.88634,-8.8 -0.48752,-1.584 -1.6199,-4.2831 -2.51642,-5.99802 -1.48777,-2.84579 -1.58726,-3.16704 -1.13987,-3.68 0.2696,-0.30908 15.42707,-18.84998 33.6833,-41.20198 18.25619,-22.352 33.50272,-40.94657 33.88118,-41.32127 l 0.68813,-0.68128 1.68,0.75504 c 1.10688,0.49746 1.68064,0.9482 1.68186,1.32127 0.003,0.55264 -39.23466,258.16272 -39.51853,259.46205 -0.12931,0.59174 -0.33962,0.64473 -2.15331,0.54262 -2.55514,-0.14387 -3.85165,0.58135 -4.77629,2.67162 -0.86765,1.9615 -0.57856,3.63069 0.91517,5.28406 1.09014,1.20666 3.18243,2.11885 4.07468,1.77648 0.25856,-0.0992 0.35552,0.0881 0.27869,0.53863 -0.30688,1.79971 -18.02227,118.1478 -18.02227,118.36368 0,0.1359 -0.684,0.24995 -1.52,0.25344 -4.04899,0.017 -11.06291,1.62048 -16.1376,3.6895 -6.91318,2.81862 -11.46758,5.88362 -17.07526,11.4913 -4.35684,4.35686 -6.96855,7.83116 -9.43492,12.55107 l -1.36816,2.61824 -1.15203,-0.45824 c -0.6336,-0.252 -36.48793,-13.61917 -79.67625,-29.70477 l -78.52422,-29.24656 0.057,-5.07344 c 0.0666,-5.92861 -0.41302,-9.20381 -2.07675,-14.18048 -2.16387,-6.4727 -5.7854,-12.12218 -10.83462,-16.9017 -4.55288,-4.30969 -9.38492,-7.20908 -15.32234,-9.19395 C 260.3325,586.4855 256.70237,585.92 251.52,585.92 c -8.78655,0 -16.07222,2.17056 -23.28068,6.93587 -9.18511,6.072 -15.90872,16.41731 -17.82471,27.42605 -0.64174,3.6873 -0.64174,10.78886 0,14.47616 1.52311,8.75139 5.92423,16.9152 12.44817,23.09066 4.55288,4.30969 9.38492,7.20908 15.32234,9.19395 4.52238,1.51181 8.15251,2.07731 13.33488,2.07731 5.21017,0 8.81308,-0.5657 13.42703,-2.10816 7.49046,-2.5041 14.49947,-7.43744 19.54591,-13.75754 l 0.78706,-0.98569 81.28,30.2935 81.28,30.29351 0.21014,4.45219 c 0.44356,9.39782 3.47568,18.35613 8.94724,26.4344 3.92982,5.80201 11.47603,12.60582 17.98502,16.21568 4.48694,2.48841 12.03114,4.99741 17.3376,5.76598 2.69005,0.38963 12.03312,0.40663 14.72,0.0269 z M 304.24292,611.84173 c 1.64195,-1.00112 2.37431,-2.42826 2.23277,-4.35104 -0.31095,-4.22419 -5.00461,-6.30419 -8.09762,-3.58851 -2.58105,2.2662 -2.12292,6.0967 0.95355,7.97273 1.31401,0.80125 3.56767,0.78605 4.9113,-0.0332 z m 17.93884,-5.77146 c 1.35085,-0.82358 2.43984,-3.15373 2.19088,-4.68787 -0.38694,-2.38448 -2.80717,-4.5824 -5.04587,-4.5824 -1.33927,0 -3.54866,1.34579 -4.20278,2.56 -0.80607,1.49626 -0.6352,4.03674 0.3576,5.31674 1.58226,2.03996 4.60775,2.66924 6.70017,1.39353 z m 17.58115,-5.74854 c 2.28807,-1.39504 3.04768,-4.59363 1.59709,-6.72499 -1.20422,-1.76935 -2.31411,-2.39674 -4.24,-2.39674 -4.94835,0 -6.60864,6.21309 -2.41539,9.03891 1.37849,0.92896 3.61059,0.96551 5.0583,0.0828 z m 17.47981,-5.56554 c 2.26141,-0.94486 3.37238,-4.08323 2.26877,-6.40896 -1.27795,-2.69309 -4.25648,-3.72301 -6.84781,-2.3679 -1.85805,0.97165 -2.66966,2.44761 -2.48806,4.52451 0.30902,3.53373 3.78348,5.62435 7.0671,4.25235 z m -76.14405,-0.96665 c 1.58121,-0.66068 2.74133,-2.53956 2.74133,-4.43972 0,-2.99926 -1.79074,-4.84697 -4.69754,-4.84697 -1.82093,0 -2.87515,0.56301 -4.08269,2.18038 -0.92606,1.24039 -0.92444,4.26903 0.003,5.53331 1.34616,1.83508 3.84813,2.48711 6.03593,1.573 z m 93.91909,-4.81805 c 0.4983,-0.25767 1.28317,-0.91674 1.74413,-1.46455 1.13053,-1.34355 1.19046,-4.07312 0.12361,-5.63008 -2.82985,-4.12992 -8.8855,-2.3742 -8.8855,2.57616 0,3.67533 3.8521,6.15552 7.01776,4.51847 z m -120.05484,-5.28976 c 3.05111,-1.86029 3.15538,-6.40061 0.19186,-8.3544 -1.2533,-0.82631 -3.7842,-0.8065 -5.17338,0.0405 -1.17493,0.71632 -2.28334,2.80195 -2.29437,4.31718 -0.01,1.33203 0.97297,3.05504 2.23281,3.91501 1.36018,0.92845 3.59496,0.96467 5.04308,0.0817 z m 138.58092,-0.85978 c 3.56966,-2.616 1.89248,-8.46931 -2.57091,-8.97241 -4.26311,-0.48052 -6.85443,4.36812 -4.19674,7.85257 0.45453,0.59594 1.27584,1.28711 1.82512,1.53591 1.31776,0.59689 3.8513,0.38361 4.94253,-0.41607 z m -99.84,-3.85072 c 1.3327,-0.99331 2.09924,-2.56617 2.09924,-4.30742 0,-1.66989 -0.59801,-2.75312 -2.16632,-3.92403 -1.22238,-0.91264 -3.96227,-0.91319 -5.21329,0 -1.06201,0.77328 -2.34347,3.12531 -2.34347,4.30022 0,1.36874 1.3335,3.57526 2.56,4.236 1.40412,0.75645 3.83646,0.61005 5.06384,-0.30477 z m 116.64138,-1.48771 c 2.50521,-1.04675 3.62377,-3.87533 2.51961,-6.37149 -2.13328,-4.82262 -9.34483,-3.59469 -9.34483,1.59117 0,3.69891 3.51734,6.16243 6.82522,4.78032 z m 18.12841,-5.88403 c 1.56912,-0.78835 2.56637,-2.40611 2.56637,-4.16323 0,-5.24682 -6.7777,-7.16071 -9.21648,-2.60256 -2.23984,4.1864 2.39616,8.90307 6.65011,6.76579 z m 17.80611,-5.85872 c 2.51738,-1.21866 3.43159,-4.78176 1.79428,-6.99306 -2.09293,-2.82662 -6.00823,-3.06125 -8.03735,-0.48163 -1.35222,1.71904 -1.26281,4.50819 0.20019,6.24691 1.60688,1.90967 3.7393,2.34291 6.04288,1.22778 z m -189.96103,-0.6585 c 4.32821,-2.43257 2.69156,-9.04534 -2.23871,-9.04534 -4.9815,0 -6.67157,6.93286 -2.23362,9.16256 1.48559,0.7464 3.00667,0.70653 4.47233,-0.11722 z m 49.20535,-0.49737 c 1.56698,-1.16989 2.12095,-2.22692 2.13903,-4.08141 0.0279,-2.86627 -1.88995,-4.82349 -4.72656,-4.82349 -2.88057,0 -4.80385,2.01392 -4.81433,5.04125 -0.006,1.72512 0.65316,2.83709 2.38722,4.02726 0.87991,0.60394 1.3888,0.72074 2.63442,0.60471 0.84911,-0.0791 1.92021,-0.42487 2.38022,-0.76832 z m 159.148,-4.92775 c 2.75565,-1.96217 2.49287,-6.44 -0.48595,-8.28102 -2.12361,-1.31245 -5.33795,-0.59568 -6.61824,1.47584 -1.02125,1.65241 -0.76166,4.53171 0.53258,5.90733 0.51673,0.54924 1.37155,1.19926 1.89955,1.44444 1.24646,0.57885 3.45427,0.32058 4.67206,-0.54659 z m 17.088,-5.41718 c 3.17556,-1.53725 3.58986,-5.55322 0.83968,-8.13952 -0.81171,-0.76336 -1.34425,-0.96371 -2.83942,-1.06832 -1.53539,-0.10743 -2.02589,-0.004 -2.96032,0.62592 -3.17728,2.14099 -2.836,6.75299 0.62912,8.50195 1.75648,0.88656 2.63136,0.90272 4.33094,0.08 z m -164.38328,-4.06455 c 2.14166,-1.59897 2.88383,-4.37075 1.73923,-6.49542 -0.67978,-1.26186 -2.87826,-2.56 -4.33545,-2.56 -3.67391,0 -6.04828,4.60794 -3.97418,7.71267 1.45116,2.17226 4.598,2.81536 6.5704,1.34275 z M 499.36,548.51818 c 1.6233,-0.74544 2.25322,-1.47031 2.68374,-3.08826 0.42138,-1.58358 0.0234,-3.25574 -1.08956,-4.57846 -1.07754,-1.28058 -2.40708,-1.7624 -4.34852,-1.57584 -1.32841,0.12764 -1.83632,0.36572 -2.76806,1.29747 -0.96282,0.96281 -1.16358,1.41155 -1.28467,2.87168 -0.33655,4.05843 3.22947,6.71622 6.80707,5.07341 z m -241.8824,-1.93056 c 3.21354,-1.45933 3.87116,-5.67661 1.24478,-7.9826 -2.81155,-2.46857 -6.85112,-1.16627 -7.8463,2.52954 -0.8072,2.9977 1.44973,5.9287 4.64392,6.03091 0.352,0.0112 1.23292,-0.24877 1.9576,-0.57785 z m 71.75894,-10.82186 c 3.16663,-2.34502 3.01716,-6.82723 -0.28291,-8.48525 -3.29056,-1.65325 -7.03363,0.81376 -7.03363,4.63575 0,3.6815 4.41014,6.00185 7.31654,3.8495 z m 224.26237,-4.83168 c 1.97747,-1.05827 2.68211,-4.73853 1.3,-6.78947 -2.03862,-3.02509 -6.58291,-3.05677 -8.33424,-0.058 -0.34531,0.5912 -0.59801,1.63645 -0.59801,2.47344 0,3.91818 4.09692,6.26614 7.63225,4.37408 z M 260.02602,527.3399 c 3.34521,-3.12524 1.49115,-8.61462 -2.91101,-8.61872 -4.2941,-0.004 -6.50252,5.10893 -3.57369,8.27383 1.01222,1.09379 1.75256,1.33094 3.8143,1.22189 1.41889,-0.075 2.02513,-0.27415 2.6704,-0.877 z m 311.20665,-2.30627 c 2.21453,-1.47942 2.78567,-4.15053 1.39488,-6.52374 -2.38288,-4.06608 -8.38713,-2.90935 -9.01017,1.73584 -0.22564,1.68214 0.81657,3.93667 2.24185,4.84963 1.44368,0.92477 3.93968,0.8961 5.37344,-0.0617 z m -230.78605,-3.2976 c 3.73069,-1.49273 3.94829,-7.04617 0.34701,-8.85552 -3.08121,-1.54806 -6.62573,0.56477 -6.93801,4.13565 -0.18183,2.0793 0.63094,3.55782 2.47587,4.50384 1.66208,0.85229 2.42489,0.89232 4.11513,0.21603 z m 248.57296,-2.36009 c 2.56916,-1.56653 2.88349,-5.28378 0.64458,-7.62212 -1.63267,-1.70518 -3.74726,-1.98816 -6.0783,-0.81337 -2.96221,1.49286 -2.85892,6.57379 0.17123,8.42128 1.38381,0.84371 3.89094,0.85049 5.26249,0.0141 z m 17.62333,-5.77421 c 1.66381,-1.01443 2.37475,-2.42359 2.22749,-4.41501 -0.15498,-2.09501 -0.90842,-3.18832 -2.87808,-4.17635 -1.88765,-0.94688 -3.63814,-0.73203 -5.19866,0.63811 -3.40547,2.99005 -1.21104,8.58912 3.36634,8.58912 0.87366,0 1.85018,-0.25008 2.48291,-0.63587 z m -345.83792,-4.42541 c 1.27385,-0.66682 2.55529,-2.85603 2.55451,-4.36413 -2.7e-4,-0.53472 -0.25227,-1.47331 -0.56,-2.08582 -1.66311,-3.31021 -6.41026,-3.45079 -8.42007,-0.24928 -0.84969,1.3535 -0.73892,4.34061 0.20012,5.39673 1.67954,1.88896 4.12696,2.401 6.22544,1.3025 z m 363.77677,-1.34605 c 1.36576,-0.83267 2.44006,-3.15238 2.18573,-4.71961 -0.29536,-1.8202 -1.58311,-3.45204 -3.21632,-4.07578 -4.46458,-1.70502 -8.24519,2.88656 -5.80503,7.0503 0.43236,0.7378 1.26036,1.57517 1.84,1.86084 1.47303,0.72598 3.69962,0.6744 4.99562,-0.11575 z m -272.0712,-0.59952 c 3.55648,-1.61517 3.81437,-6.74112 0.43469,-8.64057 -4.66906,-2.6242 -9.59165,3.27072 -6.14839,7.36281 1.56912,1.8648 3.4801,2.29216 5.7137,1.27776 z M 641.8559,502.2704 c 1.70768,-0.88851 2.4144,-1.98358 2.55232,-3.95478 0.10704,-1.53008 0.004,-2.01712 -0.6199,-2.92621 -1.23904,-1.80573 -2.33482,-2.42941 -4.26832,-2.42941 -4.94835,0 -6.60864,6.21309 -2.41539,9.03891 1.24563,0.83943 3.42086,0.96371 4.75129,0.27149 z m 17.78682,-5.75421 c 2.64499,-1.10515 3.51978,-4.95654 1.6751,-7.37504 -1.62361,-2.12867 -3.8511,-2.61961 -6.26633,-1.38115 -1.84493,0.94602 -2.6577,2.42454 -2.47587,4.50384 0.30902,3.53373 3.78348,5.62435 7.0671,4.25235 z m -294.58746,-3.90976 c 1.85127,-1.21158 2.66464,-3.89168 1.83802,-6.05619 -0.65981,-1.72768 -1.99008,-2.74115 -3.87722,-2.95386 -1.70921,-0.19267 -3.08521,0.33312 -4.13411,1.57968 -3.01171,3.5792 -0.39865,8.65335 4.15805,8.07428 0.704,-0.0895 1.61088,-0.37924 2.01526,-0.64391 z m -102.98164,-1.96694 c 3.3355,-1.67581 3.49435,-6.91693 0.26053,-8.59565 -2.44379,-1.26858 -5.33098,-0.34134 -6.57415,2.1113 -0.88596,1.74787 -0.90274,2.62531 -0.0826,4.31942 1.16127,2.39885 4.01091,3.36339 6.39625,2.16493 z m 114.8666,-12.50816 c 2.81792,-2.06179 2.96154,-6.19079 0.28362,-8.15328 -1.21136,-0.88771 -3.66022,-1.04064 -5.05747,-0.31578 -2.44083,1.26624 -3.37043,4.69498 -1.91856,7.07632 1.29539,2.12471 4.71843,2.83706 6.69241,1.39274 z M 264,471.72166 c 1.32635,-0.96246 2.24,-2.57792 2.24,-3.96064 0,-2.59056 -1.60045,-4.50886 -4.09451,-4.90768 -2.76321,-0.44185 -5.50549,1.9865 -5.50549,4.87524 0,3.76176 4.39375,6.14556 7.36,3.99308 z m 124.8,-8.00771 c 1.40662,-1.00713 2.2401,-2.55635 2.23882,-4.16128 -0.003,-3.59619 -3.44855,-5.80656 -6.84154,-4.38886 -2.87462,1.20109 -3.68621,5.61801 -1.44426,7.86 1.65792,1.65792 4.27773,1.95689 6.04698,0.69014 z M 265.5386,453.11219 c 1.12615,-0.68659 2.28244,-2.78531 2.29437,-4.16438 0.0118,-1.35735 -1.32587,-3.56439 -2.54798,-4.20413 -3.31248,-1.73402 -7.04086,0.54851 -7.04379,4.31222 -0.002,2.96442 1.71172,4.7017 4.6388,4.7017 1.04123,0 1.9697,-0.22538 2.6586,-0.64541 z m 133.83561,-3.19085 c 0.62381,-0.17331 1.62249,-0.81888 2.21929,-1.43465 0.93293,-0.96253 1.10448,-1.38688 1.22298,-3.02522 0.11184,-1.54598 0.009,-2.11398 -0.54435,-3.0095 -1.22711,-1.98547 -4.02208,-2.69824 -6.31469,-1.61034 -1.37555,0.65277 -2.67744,2.79338 -2.67744,4.40237 0,2.0297 1.50723,4.09882 3.39818,4.66499 1.24819,0.37373 1.39286,0.37437 2.69603,0.0125 z m 13.15881,-14.86835 c 0.8008,-0.33168 2.11447,-2.41878 2.35418,-3.74022 0.15114,-0.83312 0.0317,-1.57415 -0.41709,-2.58877 -2.02361,-4.57475 -8.7328,-3.30304 -9.24649,1.75261 -0.38343,3.77353 3.4512,6.17437 7.3094,4.57638 z m -145.7301,-0.49126 c 3.1421,-1.91575 3.10856,-6.94583 -0.0563,-8.44765 -1.49886,-0.71126 -3.63574,-0.65245 -4.92837,0.13565 -2.1047,1.2832 -2.87684,4.81117 -1.50966,6.89773 1.3054,1.99232 4.43022,2.6728 6.49435,1.41427 z m 157.7134,-14.05165 c 1.38211,-0.84282 2.49226,-3.21984 2.27168,-4.86426 -0.36838,-2.74646 -2.24038,-4.22707 -5.11155,-4.04278 -1.56851,0.10067 -2.00576,0.27552 -2.93066,1.17197 -2.33641,2.26451 -2.05891,6.12733 0.55463,7.72093 1.3488,0.82243 3.87913,0.82928 5.2159,0.0141 z m 273.43635,-2.35645 c 1.51699,-1.01341 2.27328,-2.59779 2.11594,-4.43273 -0.52298,-6.09965 -9.50621,-5.76029 -9.50621,0.3591 0,3.79984 4.27376,6.15558 7.39027,4.07363 z m -429.79396,-2.19136 c 2.39094,-1.34377 3.27996,-4.57168 1.84129,-6.68553 -1.19176,-1.75104 -2.26852,-2.36215 -4.11307,-2.33434 -4.98931,0.0753 -6.63515,6.90909 -2.20055,9.13709 1.48559,0.7464 3.00667,0.70653 4.47233,-0.11722 z M 436.48016,406 c 4.00976,-2.73702 2.23888,-8.8776 -2.56016,-8.8776 -4.79242,0 -6.68131,6.34883 -2.67478,8.99027 1.32147,0.87123 3.87401,0.81629 5.23494,-0.11267 z m 251.23251,-3.52637 c 1.52666,-1.0199 2.27351,-2.59606 2.11331,-4.46013 -0.24675,-2.8718 -2.55139,-4.70092 -5.43558,-4.31408 -5.78138,0.77546 -5.11133,9.50058 0.7296,9.50058 1.03235,0 1.84701,-0.22822 2.59267,-0.72637 z M 269.3176,397.46762 c 3.21354,-1.45933 3.87116,-5.67661 1.24478,-7.9826 -2.81155,-2.46857 -6.85112,-1.16627 -7.8463,2.52954 -0.8072,2.9977 1.44973,5.9287 4.64392,6.03091 0.352,0.0112 1.23292,-0.24877 1.9576,-0.57785 z m 408.04531,-10.58589 c 4.00183,-2.43994 2.55834,-8.4689 -2.12381,-8.87034 -2.75574,-0.23629 -4.82268,1.51347 -5.0615,4.28477 -0.34035,3.94966 3.84618,6.62147 7.18531,4.58557 z M 271.86007,378.2255 c 1.20916,-1.12972 1.7401,-2.31744 1.73873,-3.8896 -0.004,-4.84684 -6.4552,-6.5208 -8.87354,-2.30259 -1.28976,2.2497 -0.82551,4.61767 1.24726,6.36176 0.9359,0.78752 1.22842,0.85904 3.04115,0.74362 1.57845,-0.10051 2.18473,-0.29501 2.8464,-0.91319 z m 396.04863,-7.62044 c 1.2112,-1.1298 1.33517,-1.39549 1.45594,-3.12 0.11098,-1.58477 0.0128,-2.05828 -0.61632,-2.97255 -2.66445,-3.87206 -8.42042,-2.45648 -8.81693,2.16839 -0.25568,2.98188 1.82413,5.1591 4.92832,5.1591 1.56007,0 1.85171,-0.11814 3.04899,-1.23494 z M 272.64499,360.05632 c 1.27385,-0.66682 2.55529,-2.85603 2.55451,-4.36413 -0.002,-3.5368 -4.23665,-5.87094 -7.28242,-4.01392 -2.86892,1.74919 -3.18406,6.06768 -0.58392,8.00173 1.51081,1.12378 3.60106,1.27187 5.31183,0.37632 z m 384.48317,-4.54138 c 2.98445,-1.84448 2.70576,-6.66784 -0.48317,-8.36243 -1.44521,-0.768 -2.67942,-0.74912 -4.36473,0.0667 -2.45975,1.19075 -3.39453,4.59459 -1.89168,6.88823 1.32067,2.01561 4.63552,2.70787 6.73958,1.40748 z m -10.14352,-15.64531 c 1.97373,-1.05632 2.64502,-4.70128 1.24771,-6.77475 -0.94787,-1.40653 -3.22326,-2.38538 -4.83997,-2.08208 -1.4854,0.27869 -3.24729,1.81795 -3.71984,3.24982 -1.42112,4.30596 3.16794,7.8249 7.3121,5.60701 z m -10.4105,-15.60371 c 2.06896,-1.05741 2.84295,-4.55861 1.49613,-6.76769 -0.87971,-1.44291 -3.10525,-2.42291 -4.83766,-2.13022 -2.74346,0.4635 -4.59379,3.36404 -3.81159,5.97487 0.94861,3.16611 4.13216,4.46704 7.15312,2.92304 z m -9.963,-15.82234 c 1.93107,-1.37503 2.55347,-4.31214 1.35683,-6.4027 -0.38311,-0.66926 -1.21197,-1.37594 -2.17661,-1.85568 -1.42848,-0.71045 -1.68054,-0.7424 -3.03462,-0.38472 -1.87716,0.49585 -3.10042,1.71909 -3.59626,3.59626 -0.35763,1.35386 -0.3256,1.60682 0.38474,3.04 1.39676,2.81818 4.63491,3.73787 7.06592,2.00684 z m -11.14592,-15.12007 c 2.51625,-1.05136 3.62406,-3.8747 2.50921,-6.395 -1.38451,-3.1299 -5.36585,-3.90631 -7.75904,-1.51312 -3.65139,3.65137 0.49373,9.89535 5.24983,7.90812 z m -10.24,-15.68 c 2.50208,-1.04544 3.60854,-3.72962 2.5702,-6.23507 -0.80931,-1.95274 -2.25484,-2.92844 -4.33862,-2.92844 -3.01219,0 -4.73344,1.69837 -4.73562,4.67268 -0.003,3.57369 3.27792,5.83879 6.50404,4.49083 z"
         style="fill:#1055ad;stroke-width:0.32" />
      <path
         id="path24"
         d="M 472.96,959.77424 C 382.37533,958.71078 292.45058,931.08794 216.64,881.03859 176.47162,854.51987 141.85634,823.61363 111.36068,787.04 73.540093,741.68154 44.326349,689.66048 25.572945,634.27734 10.930042,591.03347 2.8182278,547.83107 0.63099709,501.44 -0.10230916,485.88659 0.25901405,461.0151 1.4538404,444.8 7.0081085,369.42246 29.699972,297.84291 68.559776,233.12 96.111398,187.23142 131.58396,145.86067 172.96,111.36068 211.75802,79.010288 255.26482,53.042461 302.08,34.293056 347.43744,16.127466 395.38451,5.0950704 444.8,1.4538404 c 21.86723,-1.61130864 48.53277,-1.61130864 70.4,0 75.39216,5.5553462 146.90944,28.2278456 211.68,67.1070716 45.86643,27.531808 87.25914,63.022818 121.75933,104.399088 37.83289,45.37324 66.95603,97.23518 85.80499,152.8 13.08899,38.58509 21.08262,78.06592 24.10182,119.04 1.60647,21.80109 1.60647,48.59891 0,70.4 -5.55427,75.37757 -28.23536,146.92195 -67.10704,211.68 -27.53184,45.86643 -63.02284,87.25914 -104.3991,121.75933 -45.37923,37.83789 -97.31965,67.00406 -152.8,85.80195 -52.04605,17.63427 -105.24723,25.99082 -161.28,25.33296 z m 20,-6.49472 c 15.30845,-0.45088 26.06589,-1.18506 40.16,-2.74086 88.73456,-9.7952 172.85773,-44.78884 243.2,-101.16656 26.20205,-21.00036 52.01952,-46.81828 73.05091,-73.0521 C 925.68058,681.13386 961.87728,562.30758 951.82022,440 943.70643,341.32502 904.47046,247.62559 839.52998,171.83968 824.31744,154.08657 805.88992,135.66383 788.04467,120.36775 734.28131,74.2844 671.05264,40.892592 602.88,22.580093 546.3417,7.3928054 486.21738,2.9112393 426.88,9.461345 337.99942,19.27265 253.75771,54.360528 183.36,110.89091 157.05601,132.0134 131.46586,157.64522 110.36978,184 64.24616,241.62101 32.391101,308.58796 16.983638,380.32 6.3889296,429.64544 3.8157229,481.90608 9.4600765,533.12 20.348791,631.91853 62.444902,724.69018 130.19668,799.2 c 6.04461,6.64755 24.05237,24.6584 30.60332,30.60861 56.65055,51.45536 123.32847,88.00435 196.32,107.61129 43.80269,11.76624 90.34064,17.19965 135.84,15.85962 z"
         style="fill:#20478f;stroke-width:0.32" />
    </g>
  </g>
</svg>
