<svg xmlns="http://www.w3.org/2000/svg" width="960" height="960" fill="none"><path fill="#FEFEFE" d="M464.96 952.938c-74.146-2.274-147.034-22.105-211.737-57.607-32.886-18.045-62.488-39.138-91.298-65.058-6.323-5.688-26.699-26.067-32.348-32.353-41.212-45.853-72.114-96.552-93.038-152.64C12.185 579.997 2.7 510.547 8.5 440c5.345-64.996 24.745-129.503 56.17-186.777 17.992-32.79 39.095-62.423 64.908-91.143 5.649-6.286 26.025-26.665 32.348-32.354 46.498-41.831 97.169-72.584 154.697-93.887C384.889 10.56 459.293 1.61 533.12 9.792c79.052 8.762 155.004 37.743 220.32 84.069 15.05 10.674 29.912 22.617 44.635 35.867 6.365 5.728 26.746 26.109 32.352 32.352 41.794 46.54 72.537 97.227 93.722 154.52 25.317 68.469 34.231 142.501 26.071 216.52-6.653 60.346-25.591 120.261-54.889 173.657-17.99 32.788-38.988 62.274-64.902 91.143-5.529 6.159-26.267 26.894-32.509 32.503-46.44 41.738-97.106 72.47-154.537 93.736-56.381 20.877-117.041 30.661-178.423 28.779m43.84-43.637c43.713-3.201 82.693-11.588 122.08-26.266 122.261-45.562 218.406-145.403 259.154-269.115 11.583-35.166 18.041-68.278 20.906-107.2.817-11.098.817-46.182 0-57.28-3.263-44.326-11.542-82.895-26.308-122.56C841.135 210.038 747.749 116.65 630.88 73.127c-34.877-12.988-70.252-21.226-107.2-24.965-16.796-1.7-21.605-1.908-44-1.908s-27.204.209-44 1.908c-36.948 3.739-72.323 11.977-107.2 24.965C211.609 116.651 118.251 210.01 74.727 326.88c-14.749 39.604-23.045 78.256-26.307 122.56-.817 11.098-.817 46.182 0 57.28 3.263 44.326 11.542 82.895 26.308 122.56 45.488 122.191 145.399 218.405 269.112 259.154 38.259 12.602 74.824 19.296 117.12 21.442 1.232.063 10.88.078 21.44.033 14.01-.058 21.146-.223 26.4-.608M496 765.724c-26.208-1.81-47.101-23.747-47.765-50.151l-.075-2.986-81.552-30.376-81.551-30.377-.674.883c-1.552 2.035-5.998 6.357-8.33 8.099-12.238 9.14-29.221 10.638-42.858 3.781-4.225-2.124-7.204-4.306-10.825-7.927-8.15-8.149-12.168-17.776-12.168-29.15s4.018-21.001 12.168-29.15c8.129-8.13 17.806-12.169 29.15-12.169s21.021 4.039 29.15 12.169c8.159 8.159 12.163 17.763 12.166 29.18.001 2.393-.09 4.712-.201 5.154-.188.751-.056.859 1.982 1.618l80.093 29.835c42.851 15.962 77.951 28.9 78 28.752.301-.902 3.72-6.74 4.955-8.459 8.955-12.469 23.303-20.689 37.775-21.641 1.54-.101 2.8-.318 2.8-.483 0-.406 17.878-117.612 18.111-118.739.171-.823.123-.878-.614-.693-2.02.507-4.832-1.868-5.21-4.401-.451-3.014 3.615-5.836 6.321-4.387.356.19.706.287.778.215s9.059-58.656 19.971-130.186 19.909-130.349 19.991-130.708c.126-.547-.193-.803-1.944-1.566-2.052-.894-2.106-.901-2.674-.307-.318.333-15.858 19.305-34.533 42.159l-33.954 41.553.824 1.327a31.25 31.25 0 0 1-.316 33.473c-9.306 14.385-28.629 18.498-43.057 9.165-6.213-4.019-11.117-10.703-13.098-17.851-.813-2.933-1.063-4.871-1.115-8.638l-.041-2.975-55.501-22.646c-30.526-12.456-55.588-22.537-55.694-22.404-.106.134-1.051 1.395-2.099 2.803-2.431 3.265-6.983 7.791-10.246 10.187-9.255 6.797-19.507 10.179-30.86 10.179-9.171 0-17.65-2.205-25.279-6.572-14.193-8.125-23.495-21.748-25.913-37.949-.46-3.083-.46-11.007 0-14.09 2.418-16.201 11.72-29.824 25.913-37.949 11.333-6.488 25.417-8.303 38.452-4.956 17.521 4.499 32.276 19.251 36.774 36.764 1.593 6.206 2.093 14.346 1.24 20.182-.222 1.516-.268 2.77-.107 2.928.154.152 25.33 10.496 55.947 22.988l55.668 22.712 1.932-1.79c7.565-7.006 18.724-9.827 28.667-7.248 1.383.359 2.333.464 2.501.276 1.574-1.754 69.165-84.686 69.164-84.863 0-.131-.441-.887-.979-1.679-2.986-4.401-5.592-10.952-6.515-16.38-1.493-8.769-.086-18.109 3.924-26.063 2.166-4.297 4.425-7.413 7.87-10.858 8.103-8.103 18.333-12.343 29.781-12.343 7.069 0 12.698 1.334 18.964 4.493 4.257 2.146 7.381 4.414 10.817 7.85 8.084 8.084 12.322 18.326 12.322 29.781 0 6.982-1.373 12.816-4.452 18.923-2.166 4.297-4.425 7.413-7.87 10.858-6.054 6.054-13.577 10.074-21.781 11.639l-2.88.549-29.652 194.216a1305409 1305409 0 0 1-29.836 195.366l-.184 1.151 2.181.856c2.561 1.005 7.051 3.52 9.923 5.558 1.976 1.402 2.048 1.425 2.598.843 3.45-3.654 148.893-155.809 150.671-157.624l2.414-2.465-1.427-1.535c-11.173-12.019-16.583-26.988-15.597-43.162 1.058-17.373 10.636-33.758 25.549-43.71 19.862-13.254 46.058-13.254 65.92 0 6.577 4.389 11.628 9.457 16.163 16.217 12.711 18.95 12.711 43.77 0 62.72-4.536 6.762-9.59 11.833-16.163 16.215-16.496 11-37.5 13.014-56.031 5.372l-2.339-.964-.852.888c-15.577 16.262-155.181 162.395-155.551 162.827-.504.589-.453.785.962 3.662a51.2 51.2 0 0 1 5.137 19.12c2.111 31.463-23.801 57.262-55.326 55.084m-196.499-154.09c-1.062-.659-2.156-2.269-2.412-3.549-.328-1.638.871-3.732 2.621-4.579 1.731-.838 3.17-.668 4.612.545 1.461 1.229 2.018 2.52 1.825 4.23-.133 1.182-.407 1.682-1.463 2.667-1.134 1.058-1.495 1.211-2.832 1.203-.842-.005-1.901-.237-2.351-.517m17.696-5.872c-3.166-1.93-3.034-6.283.243-8.066 1.357-.738 3.15-.563 4.567.446 1.266.902 2.274 3.192 2.014 4.578-.569 3.033-4.19 4.647-6.824 3.042m17.975-5.727c-2.375-1.448-3.147-3.692-2.051-5.957.497-1.028 1.039-1.575 2.039-2.059 1.696-.821 2.227-.823 3.859-.014 1.703.843 2.491 1.982 2.671 3.863.114 1.184-.008 1.782-.536 2.637-1.241 2.007-4.03 2.721-5.982 1.53m17.854-5.689c-.594-.293-1.414-1.134-1.88-1.929-1.383-2.36-.614-4.985 1.837-6.274 3.655-1.921 8.058 2.493 6.154 6.171-1.187 2.29-3.814 3.164-6.111 2.032m-76.149-1.064c-2.869-1.749-3.063-5.23-.416-7.457 1.869-1.572 4.191-1.41 5.939.415 1.228 1.281 1.465 3.827.501 5.363-.85 1.354-2.453 2.315-3.861 2.315-.616 0-1.589-.287-2.163-.636m93.76-4.8c-2.365-1.442-3.101-4.781-1.479-6.709 1.188-1.412 2.544-2.036 3.999-1.841 2.416.324 4.213 2.379 4.18 4.78-.047 3.384-3.836 5.516-6.7 3.77m-120.397-5.18c-2.906-1.958-2.856-5.835.097-7.636 3.016-1.839 6.619.308 6.622 3.946.001 1.335-.157 1.702-1.22 2.842-1.04 1.115-1.454 1.33-2.8 1.456-1.284.12-1.788.006-2.699-.608m138.237-.662c-1.48-1.007-2.258-2.166-2.437-3.628-.429-3.506 3.731-6.177 6.592-4.233.612.416 1.44 1.242 1.84 1.836 2.519 3.737-2.276 8.556-5.995 6.025m-99.494-3.681c-1.65-.841-2.423-2.091-2.423-3.919 0-2.556 2.012-4.64 4.48-4.64 3.391 0 5.722 4.196 3.784 6.812-1.601 2.162-3.761 2.808-5.841 1.747m117.487-1.873c-1.69-.862-2.47-2.232-2.47-4.34 0-1.494.141-1.966.8-2.671 2.257-2.415 5.227-2.314 7.148.245 1.108 1.474 1.307 2.77.671 4.359-.972 2.429-3.876 3.566-6.149 2.407m17.983-5.684c-1.229-.556-2.264-1.845-2.729-3.397-.302-1.006-.257-1.413.29-2.65.745-1.685 1.763-2.463 3.529-2.7 3.641-.488 6.448 3.736 4.551 6.848-1.197 1.963-3.664 2.793-5.641 1.899m18.107-5.682c-2.73-1.088-3.972-4.29-2.562-6.603 1.57-2.574 4.8-3.055 6.894-1.025.603.584 1.258 1.553 1.456 2.154 1.129 3.421-2.449 6.806-5.788 5.474m-190.643-.9c-3.365-2.112-2.957-6.792.714-8.194 1.37-.523 1.527-.523 2.885-.005 4.55 1.738 3.638 8.226-1.225 8.719-.963.098-1.62-.046-2.374-.52m48.878-.282c-.729-.38-1.38-1.108-1.879-2.101-.68-1.352-.723-1.657-.392-2.764.52-1.735 1.781-3.115 3.249-3.555 1.643-.492 3.825.291 4.863 1.747.963 1.35.989 3.651.055 4.912-1.64 2.212-3.797 2.856-5.896 1.761m158.996-4.864c-4.228-2.233-2.838-8.637 1.873-8.633 3.657.004 5.999 4.659 3.711 7.378-.929 1.103-2.503 1.91-3.685 1.887-.401-.008-1.256-.292-1.899-.632m18.09-5.574c-2.333-1.015-3.558-4.13-2.458-6.254 1.786-3.448 6.576-3.344 8.247.179 1.093 2.303.154 4.857-2.175 5.915-1.576.715-2.268.746-3.614.16m-164.777-3.83c-1.674-.729-2.704-2.256-2.704-4.007 0-5.818 8.097-6.449 8.869-.691.322 2.399-2.077 5.175-4.437 5.136-.414-.007-1.191-.204-1.728-.438M496 548.44c-2.752-1.097-4.027-4.519-2.573-6.904.892-1.463 2.333-2.121 4.244-1.937 3.849.37 5.622 5.073 2.894 7.676-1.477 1.41-2.987 1.795-4.565 1.165m-242.08-2.012c-3.173-1.41-3.832-5.264-1.282-7.503 1.554-1.364 3.077-1.591 4.864-.723 3.504 1.702 3.238 6.706-.437 8.242-1.284.536-1.91.533-3.145-.016m70.886-10.651c-1.732-.897-2.653-2.5-2.483-4.324.436-4.683 6.272-5.962 8.403-1.841 1.911 3.696-2.273 8.053-5.92 6.165m224.786-4.604c-1.302-.368-3.027-2.206-3.317-3.534-.523-2.393.795-4.651 3.121-5.348 3.818-1.144 7.273 3.457 5.177 6.894-.987 1.618-3.185 2.496-4.981 1.988m-295.064-3.819c-1.97-1.263-2.566-4.268-1.245-6.283 2.229-3.403 7.614-2.146 8.068 1.884.321 2.841-1.621 5.05-4.429 5.04-.844-.003-1.796-.258-2.394-.641m311.552-2.634c-3.581-2.444-2.586-7.36 1.693-8.368 1.225-.289 3.46.746 4.369 2.023 1.501 2.107 1.139 4.464-.955 6.227-1.32 1.111-3.576 1.163-5.107.118m-229.43-3.374c-2.474-1.362-3.208-3.881-1.821-6.248 1.38-2.354 3.706-3.053 5.956-1.788 1.526.858 2.255 2.107 2.254 3.859-.003 3.443-3.532 5.75-6.389 4.177m247.427-2.304c-4.84-2.951-1.303-10.347 3.856-8.065 2.453 1.085 3.527 3.66 2.498 5.987-1.116 2.523-4.05 3.482-6.354 2.078m17.028-6.492c-1.781-1.781-2.082-3.171-1.119-5.16 1.313-2.714 4.5-3.461 6.736-1.579 3.549 2.986 1.829 8.109-2.722 8.109-1.368 0-1.664-.14-2.895-1.37m-345.037-3.794c-3.775-2.418-1.964-8.268 2.561-8.274 3.542-.005 5.537 4.109 3.428 7.07-1.366 1.919-4.034 2.455-5.989 1.204m363.579-1.204c-3.181-1.94-3.071-6.435.199-8.129 4.017-2.08 8.517 3.392 5.717 6.951-1.411 1.794-4.046 2.319-5.916 1.178m-271.156-.752c-2.576-1.321-3.229-4.043-1.559-6.498 2.088-3.068 6.47-2.517 7.807.982.513 1.344.514 1.525.017 2.828-.599 1.566-1.527 2.563-2.857 3.067-1.293.49-1.829.43-3.408-.379m289.073-5.01c-3.315-2.021-3.288-6.421.05-8.037 1.66-.803 2.49-.797 3.942.029 1.614.917 2.362 2.053 2.534 3.846.114 1.184-.008 1.782-.536 2.638-1.243 2.01-4.03 2.72-5.99 1.524m17.862-5.684c-1.206-.595-2.626-2.792-2.626-4.064a4.52 4.52 0 0 1 4.537-4.522c3.34 0 5.693 3.671 4.2 6.554-1.187 2.29-3.814 3.164-6.111 2.032M360.8 492.668c-3.181-1.414-3.832-5.264-1.27-7.514 1.32-1.159 2.304-1.461 3.823-1.177 2.32.436 3.979 2.847 3.546 5.154-.258 1.375-1.597 2.986-2.954 3.553-1.284.536-1.91.533-3.145-.016m-102.81-2.32c-4.202-2.071-2.679-8.535 2.01-8.535 2.506 0 4.373 1.891 4.373 4.427 0 1.729-.612 2.778-2.29 3.92-1.241.845-2.63.909-4.093.188m114.65-12.065c-1.688-.776-2.494-1.941-2.631-3.801-.147-1.979.568-3.392 2.228-4.404 3.794-2.313 8.41 2.43 5.923 6.085-1.463 2.15-3.64 2.986-5.52 2.12m-112.32-6.198c-2.062-.516-3.518-2.625-3.278-4.749.503-4.468 5.936-5.758 8.252-1.959 1.327 2.177.446 4.997-1.945 6.223-1.403.719-1.825.787-3.029.485m124.087-8.393c-3.36-1.526-3.544-6.014-.33-8.033 1.28-.804 3.572-.704 4.824.209 2.793 2.039 2.146 6.652-1.116 7.957-1.556.622-1.729.615-3.378-.133m-123.831-10.879c-2-1.219-2.752-4.308-1.47-6.038 2.292-3.095 6.077-2.967 7.84.265 2.071 3.795-2.629 8.054-6.37 5.773m136.141-3.35c-1.543-.551-1.983-.929-2.608-2.246-.669-1.411-.643-2.654.083-4.022 2.263-4.258 8.363-2.882 8.367 1.887 0 1.869-1.016 3.469-2.688 4.229-1.549.703-1.602.706-3.154.152m12.248-14.294c-1.41-.302-3.096-2.105-3.379-3.613-.158-.838-.031-1.511.483-2.573 2.593-5.358 10.468-1.984 8.063 3.454-.947 2.141-2.959 3.204-5.167 2.732m-146.885-.987c-3.798-2.56-2.142-8.26 2.4-8.26 2.706 0 4.509 2.076 4.24 4.882-.318 3.301-3.986 5.167-6.64 3.378m158.774-13.403c-2.296-.493-3.873-3.121-3.253-5.423.36-1.336 1.987-3.121 3.101-3.4 2.324-.583 4.825.765 5.562 2.998 1.075 3.257-1.99 6.558-5.41 5.825m272.343-2.857c-2.62-1.598-3.064-4.844-.952-6.957 2.195-2.194 5.623-1.609 7.035 1.201.307.613.559 1.546.558 2.074 0 2.105-2.296 4.318-4.478 4.318-.616 0-1.589-.287-2.163-.636m-429.44-2.24c-3.985-2.43-2.415-8.409 2.207-8.409 2.55 0 4.597 2.255 4.338 4.778-.341 3.317-3.859 5.268-6.545 3.631m167.699-9.909q-2.214-1.351-1.933-4.285c.132-1.373.344-1.783 1.463-2.827 1.127-1.051 1.516-1.221 2.792-1.221 2.514 0 4.265 1.537 4.541 3.985.181 1.601-.412 2.925-1.852 4.137-1.253 1.054-3.475 1.148-5.011.211m252.064-3.102c-.765-.307-1.942-1.477-2.43-2.415-1.005-1.931-.18-4.45 1.867-5.698 3.566-2.174 8.113 2.009 6.193 5.698-.831 1.597-1.975 2.388-3.62 2.502-.841.058-1.746.019-2.01-.087m-417.6-5.255c-3.31-1.377-4.056-5.316-1.442-7.611 1.53-1.343 2.981-1.567 4.718-.725 1.689.817 2.591 2.249 2.591 4.112 0 2.909-3.307 5.29-5.867 4.224m407.36-10.442c-.746-.273-1.935-1.446-2.43-2.398-1.005-1.931-.18-4.45 1.867-5.698 2.035-1.24 4.675-.502 6.005 1.679 1.743 2.859-.408 6.685-3.72 6.618-.683-.014-1.458-.105-1.722-.201m-405.659-8.153c-1.394-.367-2.912-1.969-3.17-3.344-.463-2.469 1.181-4.974 3.556-5.42 1.56-.292 2.562.036 3.929 1.288 1.106 1.014 1.184 1.209 1.184 2.95 0 1.369-.17 2.091-.64 2.714-1.2 1.593-3.058 2.285-4.859 1.812m394.122-8.523c-.672-.672-1.319-1.608-1.437-2.082-.538-2.14.841-4.658 2.925-5.346 3.925-1.295 7.392 3.103 5.218 6.62-.86 1.392-2.115 2.03-3.991 2.03-1.304 0-1.648-.155-2.715-1.222m-393.807-10.605c-1.986-1.211-2.647-4.196-1.384-6.241 1.974-3.194 6.847-2.57 8.035 1.029 1.262 3.823-3.198 7.318-6.651 5.212m383.775-4.829c-2.146-1.884-2.287-4.587-.34-6.533 3.602-3.602 9.365.752 7.013 5.299-.705 1.365-2.251 2.207-4.053 2.209-1.227 0-1.717-.182-2.62-.975m-8.718-14.742c-1.292-.364-2.903-2.196-3.167-3.602-.144-.768-.009-1.538.452-2.58.538-1.215.927-1.604 2.142-2.142 3.11-1.375 6.222.68 6.219 4.106-.003 2.837-2.891 4.995-5.646 4.218m-10.24-15.672c-1.304-.377-2.904-2.211-3.171-3.633-.507-2.702 2.457-5.661 5.163-5.154 2.342.44 4.162 3.209 3.638 5.534-.324 1.435-1.718 2.881-3.165 3.283-1.286.357-1.123.359-2.465-.03m-10.513-15.782c-3.985-1.771-3.668-7.318.486-8.51 4.247-1.218 7.439 4.384 4.239 7.437-1.551 1.48-3.046 1.82-4.725 1.073M612 292.988c-3.045-1.353-3.815-5.113-1.501-7.33 1.922-1.841 4.658-1.743 6.389.229 2.023 2.303 1.392 5.577-1.328 6.894-1.573.761-2.228.799-3.56.207m-10.24-15.68c-1.676-.745-2.493-1.92-2.631-3.786-.231-3.127 1.685-4.898 5.149-4.759 1.257.051 3.281 2.105 3.565 3.62.347 1.851-.752 3.96-2.469 4.739-1.61.731-2.307.767-3.614.186"/><path fill="#1055AD" d="M468.64 909.741c-74.307-1.752-146.992-22.841-210.858-61.179-76.416-45.873-137.177-114.622-173.151-195.914-19.969-45.125-32.174-94.092-35.654-143.048-1.393-19.589-1.393-43.451 0-63.04 8.816-124.007 71.465-238.589 171.663-313.965 65.957-49.618 144.971-79.213 227.52-85.22 19.14-1.392 43.9-1.392 63.04 0 49.476 3.6 97.867 15.662 143.048 35.656 98.038 43.384 177.097 122.443 220.481 220.481 19.994 45.181 32.055 93.572 35.656 143.048 1.392 19.14 1.392 43.9 0 63.04-9.138 125.574-72.369 240.273-174.065 315.746-29.518 21.906-62.841 40.468-97.149 54.114a429.2 429.2 0 0 1-120.291 28.68c-12.344 1.11-16.41 1.305-36 1.727-2.552.055-8.96-.003-14.24-.126m38.4-143.99c11.383-1.61 21.112-6.517 29.453-14.858 7.612-7.612 11.889-15.431 14.277-26.101.665-2.973.75-4.166.75-10.552s-.085-7.579-.75-10.552c-1.025-4.581-2.387-8.551-4.176-12.176l-1.504-3.049 78.357-81.934 78.357-81.934 3.413 1.371c3.801 1.528 10.006 3.118 14.135 3.623 3.493.427 11.894.426 15.376 0 8.642-1.061 17.845-4.498 25.432-9.498 12.873-8.483 21.781-21.71 24.86-36.913.646-3.192.74-4.591.74-11.017s-.094-7.824-.74-11.016c-4.502-22.229-21.506-39.807-43.669-45.141-5.194-1.252-8.339-1.604-14.311-1.604s-9.117.352-14.311 1.602c-23.125 5.566-40.62 24.527-44.071 47.763-.647 4.36-.647 12.43 0 16.79 1.694 11.405 6.288 20.995 14.671 30.626l1.568 1.802-.813.869c-4.76 5.083-151.724 158.699-152.02 158.901-.261.178-1.279-.328-2.951-1.466-3.043-2.072-5.925-3.658-8.887-4.89-1.195-.498-2.118-1.06-2.051-1.251s13.495-87.978 29.84-195.084l29.717-194.739 2.351-.374c7.705-1.226 16.327-5.768 22.313-11.753 6.1-6.101 10.368-14.282 11.829-22.678.646-3.708.646-11.087 0-14.796-2.276-13.077-10.942-24.678-22.954-30.727-2.995-1.508-8.1-3.17-11.591-3.775-3.75-.648-10.97-.648-14.72 0-15.278 2.644-28.047 13.65-32.959 28.409-1.516 4.554-2.079 8.215-2.08 13.529-.003 8.671 2.093 15.942 6.613 22.953l1.413 2.19-1.214 1.48-34.59 42.29c-21.725 26.563-33.566 40.797-33.92 40.774-.298-.019-1.752-.289-3.229-.598-3.999-.839-10.996-.558-14.846.595-4.65 1.393-9.082 3.876-12.655 7.09l-1.707 1.536-2.293-.94c-1.261-.517-26.306-10.729-55.655-22.694l-53.362-21.754.242-1.92c.133-1.056.239-4.872.236-8.48-.005-5.678-.106-7.011-.75-9.912-2.361-10.63-6.655-18.485-14.271-26.101-7.106-7.106-14.655-11.445-23.853-13.713-4.828-1.19-7.206-1.461-12.8-1.461s-7.972.271-12.8 1.461c-9.198 2.268-16.747 6.607-23.853 13.713-7.612 7.613-11.889 15.431-14.277 26.101-.665 2.973-.75 4.166-.75 10.552s.085 7.579.75 10.552c2.388 10.67 6.665 18.489 14.277 26.101 4.056 4.056 7.407 6.631 11.795 9.065 4.623 2.564 12.049 5 17.658 5.793 2.888.408 11.512.408 14.4 0 5.609-.793 13.035-3.229 17.658-5.793 5.927-3.288 12.641-9.064 16.489-14.187 1.063-1.414 2.062-2.62 2.222-2.681.159-.06 25.108 10.017 55.442 22.395l55.153 22.504.159 4.486c.192 5.403 1.034 8.629 3.47 13.285 3.904 7.462 10.66 12.995 19.007 15.564 2.706.832 3.238.886 8.8.886s6.094-.054 8.8-.886c10.436-3.212 18.272-11.047 21.484-21.484.832-2.706.886-3.238.886-8.8s-.054-6.094-.886-8.8c-.488-1.584-1.62-4.283-2.517-5.998-1.488-2.846-1.587-3.167-1.14-3.68.27-.309 15.427-18.85 33.684-41.202s33.502-40.947 33.881-41.321l.688-.682 1.68.756c1.107.497 1.681.948 1.682 1.321.003.552-39.235 258.163-39.519 259.462-.129.592-.339.645-2.153.542-2.555-.143-3.852.582-4.776 2.672-.868 1.962-.579 3.631.915 5.284 1.09 1.207 3.182 2.119 4.075 1.777.258-.1.355.088.278.538-.307 1.8-18.022 118.148-18.022 118.364 0 .136-.684.25-1.52.253-4.049.017-11.063 1.621-16.138 3.69-6.913 2.818-11.467 5.883-17.075 11.491-4.357 4.357-6.968 7.831-9.435 12.551l-1.368 2.618-1.152-.458c-.634-.252-36.488-13.619-79.676-29.705l-78.524-29.246.057-5.074c.066-5.928-.413-9.203-2.077-14.18-2.164-6.473-5.786-12.122-10.835-16.902-4.553-4.309-9.385-7.209-15.322-9.194-4.522-1.511-8.153-2.077-13.335-2.077-8.787 0-16.072 2.171-23.281 6.936-9.185 6.072-15.908 16.417-17.824 27.426-.642 3.687-.642 10.789 0 14.476 1.523 8.751 5.924 16.915 12.448 23.091 4.553 4.309 9.385 7.209 15.322 9.194 4.523 1.511 8.153 2.077 13.335 2.077 5.21 0 8.813-.566 13.427-2.108 7.49-2.504 14.5-7.438 19.546-13.758l.787-.985 81.28 30.293 81.28 30.294.21 4.452c.444 9.398 3.476 18.356 8.947 26.434 3.93 5.802 11.476 12.606 17.985 16.216 4.487 2.488 12.032 4.997 17.338 5.766 2.69.39 12.033.406 14.72.027M304.243 611.842c1.642-1.001 2.374-2.429 2.233-4.351-.311-4.225-5.005-6.305-8.098-3.589-2.581 2.266-2.123 6.097.954 7.973 1.314.801 3.567.786 4.911-.033m17.939-5.772c1.351-.823 2.44-3.153 2.191-4.688-.387-2.384-2.808-4.582-5.046-4.582-1.339 0-3.549 1.346-4.203 2.56-.806 1.496-.635 4.037.358 5.317 1.582 2.04 4.607 2.669 6.7 1.393m17.581-5.748c2.288-1.395 3.048-4.594 1.597-6.725-1.204-1.77-2.314-2.397-4.24-2.397-4.948 0-6.609 6.213-2.415 9.039 1.378.929 3.61.965 5.058.083m17.48-5.566c2.261-.945 3.372-4.083 2.269-6.409-1.278-2.693-4.257-3.723-6.848-2.368-1.858.972-2.67 2.448-2.488 4.525.309 3.534 3.783 5.624 7.067 4.252m-76.144-.966c1.581-.661 2.741-2.54 2.741-4.44 0-2.999-1.791-4.847-4.698-4.847-1.82 0-2.875.563-4.082 2.18-.926 1.241-.925 4.269.003 5.534 1.346 1.835 3.848 2.487 6.036 1.573m93.919-4.819c.498-.257 1.283-.916 1.744-1.464 1.13-1.344 1.19-4.073.123-5.63-2.829-4.13-8.885-2.374-8.885 2.576 0 3.675 3.852 6.156 7.018 4.518m-120.055-5.289c3.051-1.861 3.155-6.401.192-8.355-1.254-.826-3.784-.806-5.174.041-1.175.716-2.283 2.802-2.294 4.317-.01 1.332.973 3.055 2.233 3.915 1.36.929 3.595.965 5.043.082m138.581-.86c3.57-2.616 1.892-8.469-2.571-8.972-4.263-.481-6.855 4.368-4.197 7.852.455.596 1.276 1.287 1.825 1.536 1.318.597 3.852.384 4.943-.416m-99.84-3.851c1.333-.993 2.099-2.566 2.099-4.307 0-1.67-.598-2.753-2.166-3.924-1.223-.913-3.963-.913-5.214 0-1.062.773-2.343 3.125-2.343 4.3 0 1.369 1.334 3.575 2.56 4.236 1.404.756 3.836.61 5.064-.305m116.641-1.487c2.505-1.047 3.624-3.876 2.52-6.372-2.133-4.823-9.345-3.595-9.345 1.591 0 3.699 3.517 6.163 6.825 4.781m18.129-5.885a4.67 4.67 0 0 0 2.566-4.163c0-5.247-6.778-7.16-9.216-2.602-2.24 4.186 2.396 8.903 6.65 6.765m17.806-5.858c2.517-1.219 3.431-4.782 1.794-6.993-2.093-2.827-6.008-3.062-8.037-.482-1.353 1.719-1.263 4.508.2 6.247 1.607 1.91 3.739 2.343 6.043 1.228m-189.961-.659c4.328-2.432 2.691-9.045-2.239-9.045-4.982 0-6.672 6.933-2.234 9.162 1.486.747 3.007.707 4.473-.117m49.205-.497c1.567-1.17 2.121-2.227 2.139-4.082.028-2.866-1.89-4.823-4.726-4.823-2.881 0-4.804 2.014-4.815 5.041-.006 1.725.653 2.837 2.387 4.028.88.603 1.389.72 2.635.604.849-.079 1.92-.425 2.38-.768m159.148-4.928c2.756-1.962 2.493-6.44-.486-8.281-2.124-1.312-5.338-.596-6.618 1.476-1.021 1.652-.762 4.532.532 5.907.517.55 1.372 1.2 1.9 1.445 1.246.579 3.454.32 4.672-.547m17.088-5.417c3.176-1.537 3.59-5.553.84-8.14-.812-.763-1.345-.963-2.84-1.068-1.535-.107-2.026-.004-2.96.626-3.177 2.141-2.836 6.753.629 8.502 1.757.887 2.631.903 4.331.08m-164.383-4.065c2.141-1.599 2.884-4.37 1.739-6.495-.68-1.262-2.878-2.56-4.335-2.56-3.674 0-6.049 4.608-3.975 7.713 1.452 2.172 4.598 2.815 6.571 1.342m181.983-1.657c1.623-.745 2.253-1.47 2.684-3.088.421-1.584.023-3.256-1.09-4.579-1.077-1.28-2.407-1.762-4.348-1.575-1.329.127-1.837.365-2.768 1.297-.963.963-1.164 1.412-1.285 2.872-.337 4.058 3.229 6.716 6.807 5.073m-241.882-1.93c3.213-1.46 3.871-5.677 1.244-7.983-2.811-2.468-6.851-1.166-7.846 2.53-.807 2.997 1.45 5.928 4.644 6.03.352.012 1.233-.248 1.958-.577m71.759-10.822c3.166-2.345 3.017-6.827-.283-8.485-3.291-1.654-7.034.813-7.034 4.635 0 3.682 4.41 6.002 7.317 3.85m224.262-4.832c1.977-1.058 2.682-4.738 1.3-6.789-2.039-3.025-6.583-3.057-8.334-.058-.346.591-.598 1.636-.598 2.473 0 3.918 4.097 6.266 7.632 4.374m-293.473-3.594c3.345-3.125 1.491-8.615-2.911-8.619-4.294-.004-6.503 5.109-3.574 8.274 1.013 1.094 1.753 1.331 3.815 1.222 1.419-.075 2.025-.274 2.67-.877m311.207-2.306c2.214-1.48 2.785-4.151 1.395-6.524-2.383-4.066-8.388-2.909-9.011 1.736-.225 1.682.817 3.936 2.242 4.849 1.444.925 3.94.896 5.374-.061m-230.786-3.298c3.73-1.493 3.948-7.046.347-8.855-3.082-1.549-6.626.564-6.938 4.135-.182 2.08.631 3.558 2.475 4.504 1.663.852 2.425.892 4.116.216m248.573-2.36c2.569-1.567 2.883-5.284.644-7.622-1.633-1.705-3.747-1.988-6.078-.814-2.962 1.493-2.859 6.574.171 8.422 1.384.844 3.891.85 5.263.014m17.623-5.774c1.664-1.015 2.375-2.424 2.227-4.415-.155-2.095-.908-3.189-2.878-4.177-1.887-.946-3.638-.732-5.198.638-3.406 2.991-1.211 8.59 3.366 8.59.874 0 1.85-.25 2.483-.636m-345.838-4.426c1.274-.666 2.555-2.856 2.554-4.364 0-.535-.252-1.473-.56-2.086-1.663-3.31-6.41-3.45-8.42-.249-.849 1.354-.738 4.341.201 5.397 1.679 1.889 4.127 2.401 6.225 1.302m363.777-1.346c1.366-.832 2.44-3.152 2.185-4.719-.295-1.821-1.583-3.452-3.216-4.076-4.464-1.705-8.245 2.886-5.805 7.05.432.738 1.26 1.575 1.84 1.861 1.473.726 3.7.674 4.996-.116m-272.071-.599c3.556-1.615 3.814-6.741.434-8.641-4.669-2.624-9.591 3.271-6.148 7.363 1.569 1.865 3.48 2.292 5.714 1.278m289.345-4.961c1.708-.888 2.414-1.983 2.552-3.954.107-1.53.004-2.017-.62-2.927-1.239-1.805-2.335-2.429-4.268-2.429-4.948 0-6.609 6.213-2.415 9.039 1.245.839 3.42.964 4.751.271m17.787-5.754c2.645-1.105 3.519-4.956 1.675-7.375-1.624-2.128-3.851-2.619-6.267-1.381-1.844.946-2.657 2.425-2.475 4.504.309 3.534 3.783 5.624 7.067 4.252m-294.588-3.91c1.852-1.211 2.665-3.891 1.838-6.056-.66-1.727-1.99-2.741-3.877-2.954q-2.562-.288-4.134 1.58c-3.012 3.579-.399 8.653 4.158 8.074.704-.089 1.611-.379 2.015-.644m-102.981-1.966c3.335-1.676 3.494-6.917.26-8.596-2.444-1.269-5.331-.341-6.574 2.111-.886 1.748-.903 2.625-.083 4.32a4.714 4.714 0 0 0 6.397 2.165m114.866-12.509c2.818-2.061 2.962-6.19.284-8.153-1.212-.888-3.66-1.041-5.058-.316-2.44 1.267-3.37 4.695-1.918 7.077 1.295 2.124 4.718 2.837 6.692 1.392M264 471.722c1.326-.963 2.24-2.578 2.24-3.961 0-2.59-1.6-4.509-4.095-4.908-2.763-.442-5.505 1.987-5.505 4.876 0 3.761 4.394 6.145 7.36 3.993m124.8-8.008c1.407-1.007 2.24-2.556 2.239-4.161-.003-3.596-3.449-5.807-6.842-4.389-2.874 1.201-3.686 5.618-1.444 7.86 1.658 1.658 4.278 1.957 6.047.69m-123.261-10.602c1.126-.686 2.282-2.785 2.294-4.164.012-1.358-1.326-3.565-2.548-4.204-3.312-1.734-7.041.548-7.044 4.312-.002 2.964 1.712 4.702 4.639 4.702 1.041 0 1.97-.226 2.659-.646m133.835-3.191c.624-.173 1.623-.818 2.22-1.434.932-.963 1.104-1.387 1.222-3.026.112-1.546.009-2.113-.544-3.009-1.227-1.985-4.022-2.698-6.315-1.61-1.375.652-2.677 2.793-2.677 4.402 0 2.03 1.507 4.099 3.398 4.665 1.248.374 1.393.374 2.696.012m13.159-14.868c.801-.332 2.114-2.419 2.354-3.74.151-.833.032-1.574-.417-2.589-2.023-4.575-8.733-3.303-9.246 1.753-.384 3.773 3.451 6.174 7.309 4.576m-145.73-.491c3.142-1.916 3.108-6.946-.056-8.448-1.499-.711-3.636-.652-4.929.136-2.104 1.283-2.877 4.811-1.509 6.897 1.305 1.993 4.43 2.673 6.494 1.415m157.713-14.052c1.382-.843 2.493-3.22 2.272-4.864-.368-2.747-2.24-4.227-5.112-4.043-1.568.101-2.005.276-2.93 1.172-2.337 2.265-2.059 6.127.554 7.721 1.349.822 3.88.829 5.216.014m273.437-2.356c1.517-1.014 2.273-2.598 2.116-4.433-.523-6.1-9.507-5.76-9.507.359 0 3.8 4.274 6.156 7.391 4.074m-429.794-2.192c2.391-1.343 3.28-4.571 1.841-6.685-1.192-1.751-2.269-2.362-4.113-2.335-4.989.076-6.635 6.91-2.201 9.138 1.486.746 3.007.706 4.473-.118M436.48 406c4.01-2.737 2.239-8.878-2.56-8.878-4.792 0-6.681 6.349-2.675 8.991 1.322.871 3.874.816 5.235-.113m251.233-3.526c1.526-1.02 2.273-2.596 2.113-4.46-.247-2.872-2.551-4.701-5.436-4.315-5.781.776-5.111 9.501.73 9.501 1.032 0 1.847-.228 2.593-.726m-418.395-5.006c3.213-1.46 3.871-5.677 1.244-7.983-2.811-2.469-6.851-1.166-7.846 2.53-.807 2.997 1.45 5.928 4.644 6.031.352.011 1.233-.249 1.958-.578m408.045-10.586c4.002-2.44 2.558-8.469-2.124-8.871-2.756-.236-4.823 1.514-5.061 4.285-.341 3.95 3.846 6.622 7.185 4.586m-405.503-8.656c1.209-1.13 1.74-2.318 1.739-3.89-.004-4.847-6.455-6.521-8.874-2.303-1.29 2.25-.825 4.618 1.248 6.362.935.788 1.228.859 3.041.744 1.578-.101 2.184-.295 2.846-.913m396.049-7.621c1.211-1.13 1.335-1.395 1.456-3.12.111-1.585.012-2.058-.617-2.972-2.664-3.873-8.42-2.457-8.817 2.168-.255 2.982 1.824 5.159 4.929 5.159 1.56 0 1.851-.118 3.049-1.235m-395.264-10.549c1.274-.666 2.555-2.856 2.554-4.364-.002-3.537-4.236-5.871-7.282-4.014-2.869 1.749-3.184 6.068-.584 8.002 1.511 1.124 3.601 1.272 5.312.376m384.483-4.541c2.985-1.844 2.706-6.668-.483-8.362-1.445-.768-2.679-.75-4.365.066-2.46 1.191-3.394 4.595-1.891 6.888 1.32 2.016 4.635 2.708 6.739 1.408m-10.143-15.645c1.973-1.057 2.645-4.702 1.247-6.775-.948-1.407-3.223-2.385-4.84-2.082-1.485.279-3.247 1.818-3.719 3.25-1.422 4.306 3.167 7.825 7.312 5.607m-10.411-15.604c2.069-1.057 2.843-4.559 1.496-6.768-.879-1.443-3.105-2.423-4.837-2.13-2.744.464-4.594 3.364-3.812 5.975.949 3.166 4.132 4.467 7.153 2.923m-9.963-15.822c1.931-1.375 2.554-4.313 1.357-6.403-.383-.669-1.212-1.376-2.177-1.856-1.428-.71-1.68-.742-3.034-.384-1.877.495-3.101 1.719-3.597 3.596-.357 1.354-.325 1.607.385 3.04 1.397 2.818 4.635 3.738 7.066 2.007m-11.146-15.12c2.516-1.052 3.624-3.875 2.509-6.395-1.384-3.13-5.365-3.907-7.759-1.514-3.651 3.652.494 9.896 5.25 7.909m-10.24-15.68c2.502-1.046 3.609-3.73 2.57-6.236q-1.213-2.928-4.338-2.928c-3.012 0-4.734 1.698-4.736 4.673-.003 3.573 3.278 5.839 6.504 4.491"/><path fill="#20478F" d="M472.96 959.774c-90.585-1.063-180.509-28.686-256.32-78.735-40.168-26.519-74.784-57.425-105.279-93.999-37.82-45.358-67.035-97.38-85.788-152.763C10.93 591.033 2.818 547.831.63 501.44c-.733-15.553-.372-40.425.823-56.64C7.008 369.422 29.7 297.843 68.56 233.12c27.551-45.889 63.024-87.259 104.4-121.759 38.798-32.35 82.305-58.319 129.12-77.068 45.357-18.165 93.304-29.198 142.72-32.84 21.867-1.61 48.533-1.61 70.4 0 75.392 5.556 146.909 28.229 211.68 67.108 45.866 27.532 87.259 63.023 121.759 104.399 37.833 45.373 66.956 97.235 85.805 152.8 13.089 38.585 21.083 78.066 24.102 119.04 1.607 21.801 1.607 48.599 0 70.4-5.554 75.378-28.235 146.922-67.107 211.68-27.532 45.866-63.023 87.259-104.399 121.759-45.379 37.838-97.32 67.004-152.8 85.802-52.046 17.635-105.247 25.991-161.28 25.333m20-6.494c15.308-.451 26.066-1.186 40.16-2.741 88.735-9.796 172.858-44.789 243.2-101.167 26.202-21 52.02-46.818 73.051-73.052C925.681 681.134 961.877 562.308 951.82 440c-8.114-98.675-47.35-192.374-112.29-268.16-15.213-17.753-33.64-36.176-51.485-51.472C734.281 74.284 671.053 40.893 602.88 22.58c-56.538-15.187-116.663-19.669-176-13.119-88.881 9.812-173.122 44.9-243.52 101.43-26.304 21.122-51.894 46.754-72.99 73.109-46.124 57.621-77.979 124.588-93.386 196.32C6.389 429.645 3.816 481.906 9.46 533.12c10.89 98.799 52.985 191.57 120.737 266.08 6.044 6.648 24.052 24.658 30.603 30.609 56.651 51.455 123.328 88.004 196.32 107.611 43.803 11.766 90.341 17.2 135.84 15.86"/></svg>